<svg xmlns="http://www.w3.org/2000/svg" viewBox="0 0 172.27 60.98"><defs><style>.cls-1{isolation:isolate;}.cls-2{fill:#9e7eb9;}.cls-3,.cls-4{fill:#2d3c44;}.cls-4{opacity:0.45;}.cls-4,.cls-5{mix-blend-mode:multiply;}.cls-5{fill:#89534d;opacity:0.3;}.cls-6{fill:#fff;opacity:0.15;}</style></defs><g class="cls-1"><g id="Layer_2" data-name="Layer 2"><g id="OBJECTS"><path class="cls-2" d="M169.67,13c.64,3.38.35,7.07.32,10.49-.05,7.74-.73,15.59-6,21.69-4.4,5.13-10.52,8.44-16.91,10.42-12.83,4-27.84,2-38.17-7C103.72,44,100.65,37.7,99.06,31c-.74-3.08-1.46-6.17-3.87-8.44a10.52,10.52,0,0,0-4-2.31c-2.21-1.22-4.89-.64-7.3-.44a11,11,0,0,0-6.82,2.76C74.67,24.86,74,28,73.21,31c-1.59,6.67-4.66,13-9.89,17.51-10.33,9-25.34,11-38.17,7-6.38-2-12.51-5.29-16.91-10.42-5.23-6.1-5.91-14-6-21.69C2.26,20,2,16.33,2.6,13,3.31,9.16,6.7,8.22,10,7.28,17.59,5.11,25.6,4.53,33.44,3.72a80,80,0,0,1,27,1.78C66.7,7,73.28,10.16,79.88,10.57c2.14.32,4.34.43,6.54.55,3.69.2,7.82.14,11.27-1.39,4.81-1.14,9.57-3.13,14.16-4.23a80,80,0,0,1,27-1.78c7.84.81,15.85,1.39,23.47,3.56C165.57,8.22,169,9.16,169.67,13Zm-7.11,24.78c2-5.53,3.37-12,2.57-17.92A10.29,10.29,0,0,0,161.87,13c-2.7-2.26-6.31-3-9.68-3.63a118.65,118.65,0,0,0-18.82-1.82c-9.62-1-19.26.63-28.56,3.12-3.32.88-5.61,2.26-6.09,5.89S99,24,99.82,27.43a31.81,31.81,0,0,0,10.85,17.86,38.42,38.42,0,0,0,17.88,7.63,37.81,37.81,0,0,0,19-1.55,34.5,34.5,0,0,0,9.39-5.15A18.73,18.73,0,0,0,162.56,37.73ZM72.45,27.43c.82-3.44,1.57-7.37,1.1-10.9s-2.77-5-6.09-5.89c-9.3-2.49-18.94-4.1-28.56-3.12A118.77,118.77,0,0,0,20.08,9.34c-3.37.6-7,1.37-9.68,3.63a10.29,10.29,0,0,0-3.26,6.84c-.79,5.89.54,12.39,2.57,17.92a18.73,18.73,0,0,0,5.66,8.49,34.5,34.5,0,0,0,9.39,5.15,37.81,37.81,0,0,0,19,1.55A38.38,38.38,0,0,0,61.6,45.29,31.81,31.81,0,0,0,72.45,27.43Z"/><path d="M172.06,16.2c.14,7.88,1,16.67-1.94,24.18-2.46,6.38-7.44,11.29-13.32,14.61-12.1,6.83-27.3,8-40.14,2.52A34.93,34.93,0,0,1,99.19,42a39.9,39.9,0,0,1-3.72-11.15c-.71-3.6-1.87-7.18-5.68-8.53-2.57-.91-5.6-.2-8.17.39a9.72,9.72,0,0,0-2.45,1.94c-1.55,1.73-1.94,4-2.37,6.2A39.58,39.58,0,0,1,73.08,42C69.33,49.16,63,54.36,55.61,57.51,42.77,63,27.58,61.82,15.47,55,9.59,51.67,4.61,46.76,2.15,40.38-.74,32.87.07,24.08.21,16.2c0-2.54.07-5.57,1.48-7.8,1.79-2.83,5.57-3.78,8.58-4.64C18.13,1.5,26.62.86,34.75.2A72.75,72.75,0,0,1,59.83,2.85c5.91,1.62,11.74,4.34,17.78,5.66,2.81.62,6.16.24,9.06.35a32.76,32.76,0,0,0,9.06-.59c5.66-1.4,11.15-3.9,16.71-5.42A72.78,72.78,0,0,1,137.52.2c8.13.66,16.62,1.3,24.49,3.56,3,.86,6.79,1.81,8.57,4.64C172,10.63,172,13.66,172.06,16.2ZM170,23.44c0-3.42.32-7.11-.32-10.49-.71-3.79-4.1-4.73-7.37-5.67-7.62-2.17-15.63-2.75-23.47-3.56a80,80,0,0,0-27,1.78c-4.59,1.1-9.35,3.09-14.16,4.23-3.45,1.53-7.58,1.59-11.27,1.39-2.2-.12-4.4-.23-6.54-.55C73.28,10.16,66.7,7,60.42,5.5a80,80,0,0,0-27-1.78C25.6,4.53,17.59,5.11,10,7.28,6.7,8.22,3.31,9.16,2.6,13,2,16.33,2.26,20,2.28,23.44c.05,7.74.73,15.59,6,21.69,4.4,5.13,10.53,8.44,16.91,10.42,12.83,4,27.84,2,38.17-7C68.55,44,71.62,37.7,73.21,31,74,28,74.67,24.86,77.08,22.6a11,11,0,0,1,6.82-2.76c2.41-.2,5.09-.78,7.3.44a10.52,10.52,0,0,1,4,2.31C97.6,24.86,98.32,28,99.06,31c1.59,6.67,4.66,13,9.89,17.51,10.33,9,25.34,11,38.17,7,6.39-2,12.51-5.29,16.91-10.42C169.26,39,169.94,31.18,170,23.44Z"/><path d="M165.13,19.81c.8,5.89-.54,12.39-2.57,17.92a18.73,18.73,0,0,1-5.66,8.49,34.5,34.5,0,0,1-9.39,5.15,37.81,37.81,0,0,1-19,1.55,38.42,38.42,0,0,1-17.88-7.63A31.81,31.81,0,0,1,99.82,27.43c-.82-3.44-1.57-7.37-1.1-10.9s2.77-5,6.09-5.89c9.3-2.49,18.94-4.1,28.56-3.12a118.65,118.65,0,0,1,18.82,1.82c3.37.6,7,1.37,9.68,3.63A10.29,10.29,0,0,1,165.13,19.81Zm-5.66,19.85a36.72,36.72,0,0,0,3.94-16.35c0-2.65-.42-5.63-2.46-7.55-2.32-2.19-5.82-3-8.84-3.56-12.93-2.59-26.56-3.38-39.62-1l-2.35.56c-2.34.54-6.85,1-8.16,3.33s-.33,6.23.07,8.68c1.09,6.6,3.68,13,8.59,17.7a34.34,34.34,0,0,0,14.89,8A37.58,37.58,0,0,0,143,50C149.25,48.68,156.4,45.55,159.47,39.66Z"/><path class="cls-3" d="M163.41,23.31a36.72,36.72,0,0,1-3.94,16.35c-3.07,5.89-10.22,9-16.46,10.36a37.58,37.58,0,0,1-17.48-.58,34.34,34.34,0,0,1-14.89-8c-4.91-4.68-7.5-11.1-8.59-17.7-.4-2.45-1.36-6.39-.07-8.68s5.82-2.79,8.16-3.33l2.35-.56c13.06-2.36,26.69-1.57,39.62,1,3,.6,6.52,1.37,8.84,3.56C163,17.68,163.39,20.66,163.41,23.31Z"/><path d="M73.55,16.53c.47,3.53-.28,7.46-1.1,10.9A31.81,31.81,0,0,1,61.6,45.29a38.38,38.38,0,0,1-17.88,7.63,37.81,37.81,0,0,1-19-1.55,34.5,34.5,0,0,1-9.39-5.15,18.73,18.73,0,0,1-5.66-8.49c-2-5.53-3.36-12-2.57-17.92A10.29,10.29,0,0,1,10.4,13c2.7-2.26,6.31-3,9.68-3.63A118.77,118.77,0,0,1,38.9,7.52c9.62-1,19.26.63,28.56,3.12C70.78,11.52,73.07,12.9,73.55,16.53Zm-3.33,7.22c.4-2.45,1.36-6.39.07-8.68s-5.82-2.79-8.16-3.33l-2.35-.56c-13.06-2.36-26.69-1.57-39.61,1-3,.6-6.53,1.37-8.85,3.56-2,1.92-2.44,4.9-2.46,7.55A36.72,36.72,0,0,0,12.8,39.66C15.87,45.55,23,48.68,29.26,50a37.58,37.58,0,0,0,17.48-.58,34.34,34.34,0,0,0,14.89-8C66.54,36.77,69.13,30.35,70.22,23.75Z"/><path class="cls-3" d="M70.29,15.07c1.29,2.29.33,6.23-.07,8.68-1.09,6.6-3.68,13-8.59,17.7a34.34,34.34,0,0,1-14.89,8A37.58,37.58,0,0,1,29.26,50C23,48.68,15.87,45.55,12.8,39.66A36.72,36.72,0,0,1,8.86,23.31c0-2.65.43-5.63,2.46-7.55,2.32-2.19,5.82-3,8.85-3.56,12.92-2.59,26.55-3.38,39.61-1l2.35.56C64.47,12.28,69,12.76,70.29,15.07Z"/><path class="cls-4" d="M71.09,13.73A89.94,89.94,0,0,0,21.48,10c-3.76.78-7.67,1.93-10.29,4.73S7.67,21.56,7.7,25.41a28,28,0,0,0,4.59,15c.87,1.34,3.71,5.87,5.38,5.53.86-.17,2.39-2.27,3.08-2.89q1.63-1.48,3.31-2.91a139.28,139.28,0,0,1,47-26.37Z"/><path class="cls-4" d="M156.68,18.69a10.26,10.26,0,0,0,3.47-1.59,3.31,3.31,0,0,0,1.27-3.39c-.49-1.55-2.3-2.18-3.88-2.55a116.92,116.92,0,0,0-50-.89c-2.53.51-5.28,1.26-6.74,3.39-1.13,1.66-1.21,3.81-1.09,5.82a36.88,36.88,0,0,0,3.87,14.18,37.88,37.88,0,0,0,4.1,6.43c1.58,2,2.89,4.53,5.28,2.62a142.19,142.19,0,0,1,26.92-17.33A129.49,129.49,0,0,1,156.68,18.69Z"/><path class="cls-5" d="M72.36,31.05c-4.85,5.25-6.28,13.08-11.69,18-2.6,2.34-6.17,3.48-9.48,4.41a45.08,45.08,0,0,1-10.75,1.66C27.6,55.5,11.11,50.67,5.52,37.93A36.16,36.16,0,0,1,2.86,24.61,62.08,62.08,0,0,1,3,18.21c.13-2-.09-5.07.75-6.9a.76.76,0,0,0-1.31-.76,10.89,10.89,0,0,0-1.35,4.3,45.59,45.59,0,0,0-.8,6.89,47.54,47.54,0,0,0,1.24,13,26.47,26.47,0,0,0,12,16.3c13.24,8.24,32,10.39,46.15,3.16a20.91,20.91,0,0,0,8-8c1.38-2.21,2.68-4.5,3.86-6.82s2.46-4.59,2.84-7.16C74.48,31.14,73.25,30.1,72.36,31.05Z"/><path class="cls-5" d="M68.19,9.24C60,3.4,48.33,3.72,38.77,4.06,28,4.43,16.46,4.29,7.89,11.72c-1,.88.08,2.42,1.25,2.14,2.21-.53,3.9-1.72,5.9-2.73a27.82,27.82,0,0,1,7.69-2.28,116.27,116.27,0,0,1,16-1.17A93.64,93.64,0,0,1,53.84,8c2.31.3,4.58.76,6.87,1.16a19.05,19.05,0,0,1,6.4,1.88A1.07,1.07,0,0,0,68.19,9.24Z"/><path class="cls-5" d="M164.5,43.36a22.9,22.9,0,0,0-4.05,3.1A33.89,33.89,0,0,1,155.26,50a37.89,37.89,0,0,1-10.37,4.09c-8.25,1.87-17.14.67-25.22-1.53-3.82-1-7.88-2-10.69-5a24.41,24.41,0,0,1-5-9.2c-1.28-3.83-1.57-8-3.31-11.65A16.28,16.28,0,0,0,94,19.76C89.36,17.22,80.88,15.89,77.47,21c-.52.78.57,1.4,1.19.92,5.11-4,13.69-1,17.49,3.32,2.93,3.37,3.18,7.78,4.32,11.91a36.15,36.15,0,0,0,4,9.42c4.06,6.61,11.19,8.67,18.39,10.37,7.78,1.83,16,2.61,23.83.82A36.21,36.21,0,0,0,158,53.21c3.17-2,7.08-4.71,8.49-8.34C166.91,43.7,165.44,42.88,164.5,43.36Z"/><path class="cls-5" d="M162.41,11.55c-2.64-3.6-7-4.3-11.15-5.19a103.87,103.87,0,0,0-17.95-1.84A91.62,91.62,0,0,0,117,5.16c-5.21.73-10.9,1.79-15,5.3-.91.77.08,2,1.07,1.84,4.77-1,9.27-2.77,14.11-3.49a85.11,85.11,0,0,1,15-.72,127.77,127.77,0,0,1,15.63,1.24c2.28.36,4.55.76,6.82,1.15s4.63.76,6.39,2.17C161.71,13.22,163.07,12.46,162.41,11.55Z"/><path class="cls-6" d="M62.87,21.74C60.61,24.66,59.26,28.3,57,31.3c-2.43,3.23-5.67,5-9,7.12-1.79,1.12-1.26,4.62,1.18,4.34,5-.56,8.67-3.61,11.57-7.55a27.78,27.78,0,0,0,3.14-5.86,31.94,31.94,0,0,0,2.27-6.24A1.8,1.8,0,0,0,62.87,21.74Z"/><path class="cls-6" d="M39.41,42.49a3.52,3.52,0,0,0-.91-1.56,4.18,4.18,0,0,0-.85-.67,3.63,3.63,0,0,0-1.83-.49l-.93.12a2.67,2.67,0,0,0-1.2.63,1.9,1.9,0,0,0-.63.63,2.67,2.67,0,0,0-.63,1.2,4.22,4.22,0,0,0,0,1.87A2.54,2.54,0,0,0,33,45.34a3.74,3.74,0,0,0,2,1.52,3.57,3.57,0,0,0,1.89,0,2.68,2.68,0,0,0,1.21-.64,2.71,2.71,0,0,0,.91-1,2.64,2.64,0,0,0,.42-1.32A2.64,2.64,0,0,0,39.41,42.49Z"/><path class="cls-6" d="M159.78,23.07a1.84,1.84,0,0,0-3.55,1c.78,3.57-2.88,8.13-5.2,10.53-2.91,3-6.82,4.76-10.33,6.92-1.81,1.11-1.18,4.31,1.13,4.18,5.84-.32,10.48-3.74,13.82-8.4C158.33,33.54,161.4,27.76,159.78,23.07Z"/><path class="cls-6" d="M133.33,43.29c-.11-.25-.21-.51-.32-.76a3,3,0,0,0-.4-.53l-.06-.07a2.59,2.59,0,0,0-.51-.42,1.47,1.47,0,0,0-.56-.31,2.22,2.22,0,0,0-1.16-.26,5.06,5.06,0,0,0-.86.11l-.73.31,0,0a2.42,2.42,0,0,0-.89.82,1.61,1.61,0,0,0-.41.7,2.33,2.33,0,0,0-.27,1.22c0,.28.07.56.11.84s.21.51.32.76a2.42,2.42,0,0,0,.82.89,1.67,1.67,0,0,0,.69.41,2.47,2.47,0,0,0,1.23.27,3.89,3.89,0,0,0,1.6-.43,2.47,2.47,0,0,0,.88-.82,1.51,1.51,0,0,0,.41-.7,2.33,2.33,0,0,0,.27-1.22C133.41,43.85,133.37,43.57,133.33,43.29Z"/></g></g></g></svg>