<svg xmlns="http://www.w3.org/2000/svg" viewBox="0 0 168.19 68.07"><defs><style>.cls-1{isolation:isolate;}.cls-2{fill:#3c479d;}.cls-3,.cls-4{fill:#535b66;}.cls-4{opacity:0.45;}.cls-4,.cls-5{mix-blend-mode:multiply;}.cls-5{fill:#89534d;opacity:0.3;}.cls-6{fill:#fff;opacity:0.15;}</style></defs><g class="cls-1"><g id="Layer_2" data-name="Layer 2"><g id="OBJECTS"><path class="cls-2" d="M165.27,23.28a63.5,63.5,0,0,1,.18,10.59c-.52,7.22-2.9,14.39-7.75,19.87A32.86,32.86,0,0,1,139.93,64c-13,2.77-28.06-2-37.09-11.74-5.45-5.87-7.47-12.9-7.88-20.71-.16-3.2-.72-6.72-3-9.13-4-4.15-11.72-4.17-15.69,0-2.3,2.41-2.86,5.93-3,9.13-.4,7.81-2.42,14.84-7.87,20.71C56.32,62,41.25,66.73,28.26,64A32.86,32.86,0,0,1,10.49,53.74C5.63,48.26,3.26,41.09,2.73,33.87a62.45,62.45,0,0,1,.19-10.59A45.55,45.55,0,0,1,4.64,13.1C7.1,5.72,15.28,4.5,22.1,4c9.31-.71,18.63-1.08,28-1.36,7.14-.22,14.27-.06,21.41-.1,9.76,0,19.49.84,29.25.46,3.55-.13,7.52.15,11.1-.47,2.1,0,4.2,0,6.31.11,9.33.28,18.65.65,28,1.36,6.83.52,15,1.74,17.47,9.12A45.55,45.55,0,0,1,165.27,23.28Zm-3.45,5.2c.51-7.18-.69-14.4-6.95-18.73C149.49,6,142.39,5.38,136,5.1c-1.08,0-2.17-.08-3.25-.08a73.29,73.29,0,0,0-12.65-.15c-4.2.27-8.62.75-12.55,2.34-7.39,3-10.83,10.37-11,18-.32,14.08,7.8,28,20.87,33.46,12.41,5.23,29.87,3.81,38.49-7.66C160.73,44.66,161.26,36.15,161.82,28.48ZM104.18,6.55a1.12,1.12,0,0,0-.26-2c-2.54-.55-5.18.15-7.73.25l-.77,0c-4.39-.55-9,.39-13.39.24C79.74,5,77.46,5,75.17,4.9c-1.59-.07-3.17-.21-4.75-.24a19.56,19.56,0,0,0-6.15-.13,1.12,1.12,0,0,0-.26,2c2.45,1.38,5.26,2.3,7.41,4.17,2.66,2.33,2.2,5.69,3.63,8.65a1.39,1.39,0,0,0,2.15.28,7.92,7.92,0,0,1,2.08-1.15,38.55,38.55,0,0,1,4.28-.7,18.28,18.28,0,0,1,3,0c.54.05,1.07.2,1.59.3A14.69,14.69,0,0,1,91,19.65a1.38,1.38,0,0,0,2.15-.28c1.44-3,1-6.32,3.64-8.65C98.92,8.85,101.73,7.93,104.18,6.55ZM50.73,58.69C63.8,53.18,71.92,39.31,71.61,25.23c-.17-7.65-3.61-15-11-18-3.92-1.59-8.35-2.07-12.54-2.34A73.28,73.28,0,0,0,35.41,5c-1.09,0-2.17,0-3.25.08C25.8,5.38,18.7,6,13.32,9.75,7.05,14.08,5.86,21.3,6.37,28.48,6.92,36.15,7.46,44.66,12.24,51,20.86,62.5,38.33,63.92,50.73,58.69Z"/><path d="M168.13,27.19c.31,7.24-.55,14.66-3.65,21.27a33.86,33.86,0,0,1-15.09,15.37c-12.54,6.53-27.9,5.2-39.92-1.85-7.29-4.28-13.16-10.43-15.86-18.54-1.41-4.2-1.47-8.31-1.66-12.67-.12-2.59-.6-5.47-2.73-7.19a8.07,8.07,0,0,0-10.26,0c-2.13,1.72-2.6,4.6-2.72,7.19-.2,4.36-.26,8.47-1.66,12.67C71.87,51.55,66,57.7,58.72,62c-12,7.05-27.38,8.38-39.93,1.85A33.84,33.84,0,0,1,3.71,48.46c-3.1-6.61-4-14-3.65-21.27C.34,20.8.53,12.4,4.84,7.26,9.47,1.73,17.35.74,24.1.45,33,.05,42-.14,51,.11c5,.15,10,.37,15,.75L67.87,1C74.56.81,81.28,1.13,88,1,92.21,1,96.47.84,100.72.66a81.68,81.68,0,0,1,9.57-.29q3.46-.15,6.92-.26c9-.25,17.94-.06,26.87.34,6.76.29,14.64,1.28,19.27,6.81C167.66,12.4,167.85,20.8,168.13,27.19Zm-2.68,6.68a63.5,63.5,0,0,0-.18-10.59,45.55,45.55,0,0,0-1.72-10.18C161.08,5.72,152.91,4.5,146.08,4c-9.3-.71-18.62-1.08-28-1.36-2.11-.07-4.21-.09-6.31-.11-3.58.62-7.55.34-11.1.47-9.76.38-19.49-.51-29.25-.46-7.14,0-14.27-.12-21.41.1-9.33.28-18.65.65-28,1.36-6.82.52-15,1.74-17.46,9.12A45.55,45.55,0,0,0,2.92,23.28a62.45,62.45,0,0,0-.19,10.59c.53,7.22,2.9,14.39,7.76,19.87A32.86,32.86,0,0,0,28.26,64c13,2.77,28.06-2,37.09-11.74,5.45-5.87,7.47-12.9,7.87-20.71.17-3.2.73-6.72,3-9.13,4-4.17,11.73-4.15,15.69,0,2.3,2.41,2.86,5.93,3,9.13.41,7.81,2.43,14.84,7.88,20.71,9,9.76,24.1,14.51,37.09,11.74A32.86,32.86,0,0,0,157.7,53.74C162.55,48.26,164.93,41.09,165.45,33.87Z"/><path d="M154.87,9.75c6.26,4.33,7.46,11.55,6.95,18.73-.56,7.67-1.09,16.18-5.88,22.55-8.62,11.47-26.08,12.89-38.49,7.66-13.07-5.51-21.19-19.38-20.87-33.46.17-7.65,3.61-15,11-18,3.93-1.59,8.35-2.07,12.55-2.34A73.29,73.29,0,0,1,132.78,5c1.08,0,2.17,0,3.25.08C142.39,5.38,149.49,6,154.87,9.75Zm4.22,23.56c.71-6.68,1.71-15.15-4.14-19.93-4.92-4-12.29-4.91-18.39-5.6a90.94,90.94,0,0,0-19.3-.19,49.39,49.39,0,0,0-5,.91c-3.31.81-6.59,2.17-8.87,4.81a18.57,18.57,0,0,0-3.89,8.54C97.13,34.17,104,47.8,114.71,53.93s25.39,6.46,35.66-1.12C156.75,48.1,158.29,40.74,159.09,33.31Z"/><path class="cls-3" d="M155,13.38c5.85,4.78,4.85,13.25,4.14,19.93-.8,7.43-2.34,14.79-8.72,19.5-10.27,7.58-24.8,7.31-35.66,1.12S97.13,34.17,99.5,21.85a18.57,18.57,0,0,1,3.89-8.54c2.28-2.64,5.56-4,8.87-4.81a49.39,49.39,0,0,1,5-.91,90.94,90.94,0,0,1,19.3.19C142.66,8.47,150,9.35,155,13.38Z"/><path d="M103.92,4.53a1.12,1.12,0,0,1,.26,2c-2.45,1.38-5.26,2.3-7.41,4.17-2.67,2.33-2.2,5.69-3.64,8.65a1.38,1.38,0,0,1-2.15.28,14.69,14.69,0,0,0-2.87-1.53c-.52-.1-1-.25-1.59-.3a18.28,18.28,0,0,0-3,0,38.55,38.55,0,0,0-4.28.7,7.92,7.92,0,0,0-2.08,1.15,1.39,1.39,0,0,1-2.15-.28c-1.43-3-1-6.32-3.63-8.65-2.15-1.87-5-2.79-7.41-4.17a1.12,1.12,0,0,1,.26-2,19.56,19.56,0,0,1,6.15.13c1.58,0,3.16.17,4.75.24C77.46,5,79.74,5,82,5.05c4.42.15,9-.79,13.39-.24l.77,0C98.74,4.68,101.38,4,103.92,4.53ZM99.7,6.1c-1.17,0-2.35.06-3.51,0l-.76,0a98.38,98.38,0,0,1-24.37,0c-.86,0-1.72,0-2.57,0a18.81,18.81,0,0,1,4.94,3.06c2.39,2.19,2.92,5,3.74,7.91l.77-.16c3.38-.68,7.36-2.17,10.75-.69.76.33,1.73,1.13,2.4.57.44-.38.62-2.24.81-2.82a10.9,10.9,0,0,1,2.86-4.81A18.65,18.65,0,0,1,99.7,6.1Z"/><path d="M71.61,25.23c.31,14.08-7.81,28-20.88,33.46C38.33,63.92,20.86,62.5,12.24,51,7.46,44.66,6.92,36.15,6.37,28.48c-.51-7.18.68-14.4,7-18.73C18.7,6,25.8,5.38,32.16,5.1c1.08,0,2.16-.08,3.25-.08a73.28,73.28,0,0,1,12.65-.15c4.19.27,8.62.75,12.54,2.34C68,10.2,71.44,17.58,71.61,25.23ZM53.47,53.93C64.22,47.8,71.05,34.17,68.69,21.85a18.57,18.57,0,0,0-3.89-8.54c-2.28-2.64-5.56-4-8.88-4.81a49.2,49.2,0,0,0-5-.91,91,91,0,0,0-19.31.19c-6.1.69-13.46,1.57-18.39,5.6C7.39,18.16,8.39,26.63,9.1,33.31c.79,7.43,2.34,14.79,8.72,19.5C28.08,60.39,42.62,60.12,53.47,53.93Z"/><path class="cls-3" d="M68.69,21.85c2.36,12.32-4.47,25.95-15.22,32.08s-25.39,6.46-35.65-1.12C11.44,48.1,9.89,40.74,9.1,33.31c-.71-6.68-1.71-15.15,4.13-19.93,4.93-4,12.29-4.91,18.39-5.6a91,91,0,0,1,19.31-.19,49.2,49.2,0,0,1,5,.91c3.32.81,6.6,2.17,8.88,4.81A18.57,18.57,0,0,1,68.69,21.85Z"/><path class="cls-4" d="M59.25,14.16c1.35-.69,2.88-1.55,3.16-3a3.34,3.34,0,0,0-1.61-3.2,9.11,9.11,0,0,0-3.59-1.14,103.08,103.08,0,0,0-32.56-.17c-4.35.68-8.89,1.75-12.12,4.76-4,3.68-5.09,9.51-5.08,14.92a47.41,47.41,0,0,0,3.23,17c1,2.64,2.23,5.88,4.05,8.08,2,2.42,3.65-1.93,4.89-3.61a114.32,114.32,0,0,1,23.6-23.66A112.76,112.76,0,0,1,59.25,14.16Z"/><path class="cls-4" d="M151.92,17.3a6.69,6.69,0,0,0,3-3.11,4.48,4.48,0,0,0-1.77-4.7,12.06,12.06,0,0,0-4.93-1.94,93.73,93.73,0,0,0-33.35-1.26c-4.37.63-8.9,1.66-12.22,4.56-4.06,3.55-5.56,9.3-5.46,14.69a32.1,32.1,0,0,0,3.52,13.87c1.4,2.76,5.49,10.52,9.34,9.6,2.23-.54,4.47-3.4,6.19-4.84q3.28-2.74,6.61-5.41,6.59-5.3,13.38-10.33Q143.93,22.7,151.92,17.3Z"/><path class="cls-5" d="M60.57,55.32c-3,1.89-5.84,3.76-9.28,4.94a39.72,39.72,0,0,1-10.63,2c-8.07.43-17.18-.78-23.94-5.52a29.09,29.09,0,0,1-8.14-8.86c-2.18-3.7-2.7-8-3-12.19a109.31,109.31,0,0,1-.14-13.3c.26-4.32.37-8.74,1.91-12.83C7.83,8.38,6,7.89,5.5,9A57.46,57.46,0,0,0,2.87,20a57.66,57.66,0,0,0-.94,11.8c.18,7.07.65,14.29,5,20.17A32,32,0,0,0,23.2,63.82a48.94,48.94,0,0,0,20.69,1.8c6.26-.77,14.84-2.78,18.21-8.76A1.13,1.13,0,0,0,60.57,55.32Z"/><path class="cls-5" d="M83.94,18.49c-3.63.2-7.53.93-10.23,3.54-.76.73.26,2.14,1.16,1.5,2.88-2.05,6.56-1.51,9.56-3.22A1,1,0,0,0,83.94,18.49Z"/><path class="cls-5" d="M87.44,3.7c-3.53-1-7.26-.71-10.88-.54-3.31.15-6.79.19-10,1.17a.36.36,0,0,0,.19.7c3.36-.51,6.82.15,10.2.17s6.79.23,10.19.49C88.33,5.78,88.51,4,87.44,3.7Z"/><path class="cls-5" d="M156.93,52.51c-3.46,1.79-6.42,4.43-10,6.1a33.43,33.43,0,0,1-11.32,3A40,40,0,0,1,114,57.77c-6-3.08-11.93-8.06-14.83-14.28-1.29-2.76-2.2-5.83-3.26-8.7s-2.72-6.57-1.64-9.5c.19-.5-.61-.82-.86-.36-2.51,4.67-.43,9.76,1,14.43,1.75,5.74,4.09,10.45,8.43,14.7,9.36,9.13,22.56,12.6,35.36,10.82a31.77,31.77,0,0,0,20-10.81A1,1,0,0,0,156.93,52.51Z"/><path class="cls-5" d="M157.73,10.84c-2.41-3-6.55-3.85-10.06-5a56.86,56.86,0,0,0-13.4-3.24,83.56,83.56,0,0,0-14,.13c-4,.29-8.47.69-11.86,2.91a.91.91,0,0,0,.7,1.65c4.15-.66,8.12-1.61,12.36-1.85a85.87,85.87,0,0,1,12.32-.06c8,.67,15.8,4,23.28,6.6C157.78,12.17,158.1,11.3,157.73,10.84Z"/><path class="cls-5" d="M67.24,11.31c-1.8-3.45-6.24-4.71-9.67-6A41.86,41.86,0,0,0,42.38,2.77,88.52,88.52,0,0,0,27.67,4C23,4.84,17.5,5.94,13.58,8.75a.82.82,0,0,0,.63,1.49c4.38-1.12,8.47-2.77,13-3.48a105.77,105.77,0,0,1,14-1A48.48,48.48,0,0,1,55,6.86a55.3,55.3,0,0,1,11.85,4.85A.29.29,0,0,0,67.24,11.31Z"/><path class="cls-6" d="M61,19.65c-1-1.44-3.64-.58-3,1.25,1.79,4.9-.14,9.91-2.75,14.12s-6.64,7.2-9.55,11.18a2.15,2.15,0,0,0,1.85,3.22c6.3-.83,10.72-6.82,13.4-12.18C63.75,31.7,64.59,25,61,19.65Z"/><path class="cls-6" d="M34.16,49.6A3.25,3.25,0,0,0,31,48.77a8.33,8.33,0,0,0-.82.34l-.65.5a3.25,3.25,0,0,0-.85,1.44,8.08,8.08,0,0,0-.11.86,2.36,2.36,0,0,0,.27,1.23,2.25,2.25,0,0,0,.7,1.06,3.16,3.16,0,0,0,1.39.81L31,55a3.2,3.2,0,0,0,1.71,0,3.25,3.25,0,0,0,1.43-5.43Z"/><path class="cls-6" d="M154.3,22.56c-1.39-1.81-4.27-.29-3.14,1.83,1.25,2.33.46,5.28-.26,7.66a29.3,29.3,0,0,1-2.74,6.77c-2.59,4.3-7.13,6.7-10.58,10.18-1.6,1.62,0,5.11,2.4,4.12,5.85-2.42,11-6.73,13.64-12.62C155.85,35.51,158,27.35,154.3,22.56Z"/><path class="cls-6" d="M132.63,48a3,3,0,0,0-4.17,0,3,3,0,0,0,2.08,5,3.06,3.06,0,0,0,2.09-.86,2.95,2.95,0,0,0,0-4.18Z"/></g></g></g></svg>