<svg xmlns="http://www.w3.org/2000/svg" viewBox="0 0 182.58 68.2"><defs><style>.cls-1{isolation:isolate;}.cls-2{fill:#3c479d;}.cls-3,.cls-4{fill:#5bc0c4;}.cls-4{opacity:0.45;}.cls-4,.cls-5{mix-blend-mode:multiply;}.cls-5{fill:#89534d;opacity:0.3;}.cls-6{fill:#fff;opacity:0.15;}</style></defs><g class="cls-1"><g id="Layer_2" data-name="Layer 2"><g id="OBJECTS"><path class="cls-2" d="M178.47,15.64c2.05,2.53,1.77,6.55,1.45,9.58s-.65,6.16-1,9.23c-.23,2.08-.58,3.94-2.39,5.2a18.63,18.63,0,0,0-3.89,2.87c-2.16,2.5-2.79,5.78-3.32,8.94-.6,3.6-1.18,7.3-4.44,9.47-2.76,1.83-6.27,2.44-9.51,2.76s-6.29.29-9.44.37c-3.8.1-7.59.47-11.39.65-7.66.39-16.79.71-22.57-5.18-4.72-4.81-8-12.06-9.3-18.62-.74-3.78-1.11-8-3.74-11.11a10.48,10.48,0,0,0-15.3,0c-2.63,3.06-3,7.33-3.74,11.11-1.29,6.56-4.58,13.81-9.3,18.62C64.82,65.42,55.69,65.1,48,64.71c-3.8-.18-7.59-.55-11.39-.65-3.15-.08-6.3-.06-9.44-.37s-6.75-.93-9.51-2.76c-3.26-2.17-3.84-5.87-4.44-9.47-.53-3.16-1.16-6.44-3.32-8.94A18.63,18.63,0,0,0,6,39.65c-1.81-1.26-2.16-3.12-2.39-5.2q-.51-4.61-1-9.23c-.32-3-.6-7,1.45-9.58C5.33,14.16,7.36,13.12,9,12.08a54.5,54.5,0,0,1,5.41-3.2A38,38,0,0,1,27.44,5.21c5.13-.58,10.28-1,15.43-1.4a68.17,68.17,0,0,1,16.4,0c5.25.82,10.32,2.53,15.5,3.72,1.46.34,3,.69,4.51,1,6.53,2.5,14.51,2.14,21.28.84a34.52,34.52,0,0,0,6.73-1.68l.52-.12c5.18-1.19,10.25-2.9,15.5-3.72a68.17,68.17,0,0,1,16.4,0c5.15.45,10.3.82,15.43,1.4a38,38,0,0,1,13.08,3.67,53.38,53.38,0,0,1,5.41,3.2C175.22,13.12,177.25,14.16,178.47,15.64ZM169.1,37.15a61.44,61.44,0,0,0,0-14.28c-.86-6.68-4-11.78-10.62-13.68-7.24-2.08-15.38-1.8-22.81-1.47l-.83,0A55.78,55.78,0,0,0,122,8c-4.31.55-8.79.91-12.83,2.62A11.8,11.8,0,0,0,102,18.22c-1.08,4-.18,8.4.5,12.37,1.31,7.59,3.49,15.46,8.11,21.71,4.23,5.72,10.09,8.15,16.93,9a82.49,82.49,0,0,0,25.8-1.15c5.91-1.17,11.43-4.25,13.63-10.24C168.38,46,168.66,41.33,169.1,37.15Zm-89-6.56c.68-4,1.58-8.39.5-12.37-1-3.66-3.79-6.15-7.17-7.59-4-1.71-8.52-2.07-12.83-2.62a55.78,55.78,0,0,0-12.85-.24l-.83,0c-7.43-.33-15.57-.61-22.81,1.47-6.61,1.9-9.76,7-10.62,13.68a61.44,61.44,0,0,0,0,14.28c.44,4.18.72,8.83,2.17,12.78,2.2,6,7.72,9.07,13.63,10.24a82.49,82.49,0,0,0,25.8,1.15c6.84-.87,12.7-3.3,16.93-9C76.63,46.05,78.82,38.18,80.12,30.59Z"/><path d="M178.14,12.19c5.55,4,4.48,11.14,4.11,17.2-.21,3.34.31,7.09-1.12,10.23-1.57,3.47-5.87,3.72-7.58,7.17s-1.58,7.39-3,10.89a12.42,12.42,0,0,1-6.33,6.49c-6,2.85-13,2.49-19.52,2.89-8.63.53-17.52,2.18-26.09.15-8.28-2-13.14-9.11-16.28-16.53A56.49,56.49,0,0,1,98.9,38.24c-.44-2.47-.93-5.38-2.87-7.15A9.23,9.23,0,0,0,91.84,29c-1.68-.3-4.09,1-5.29,2.06-1.94,1.77-2.43,4.68-2.87,7.15a56,56,0,0,1-3.41,12.44c-3.14,7.42-8,14.57-16.28,16.53-8.57,2-17.46.38-26.09-.15-6.5-.4-13.48,0-19.52-2.89a12.42,12.42,0,0,1-6.33-6.49c-1.44-3.5-1.33-7.49-3-10.89s-6-3.7-7.58-7.17C0,36.48.54,32.73.33,29.39,0,23.33-1.11,16.23,4.44,12.19a71.34,71.34,0,0,1,11.35-7A43.87,43.87,0,0,1,28.92,1.59C33.83.94,38.79.59,43.73.25A61.78,61.78,0,0,1,57.92.58c5.1.82,10,2.65,14.86,4.19a57.38,57.38,0,0,0,15.9,3.14A66,66,0,0,0,104.58,6c6.78-1.51,13.2-4.34,20.08-5.44A61.78,61.78,0,0,1,138.85.25c4.94.34,9.9.69,14.81,1.34A44,44,0,0,1,166.8,5.15,71.7,71.7,0,0,1,178.14,12.19Zm1.78,13c.32-3,.6-7-1.45-9.58-1.22-1.48-3.25-2.52-4.84-3.56a53.38,53.38,0,0,0-5.41-3.2,38,38,0,0,0-13.08-3.67c-5.13-.58-10.28-1-15.43-1.4a68.17,68.17,0,0,0-16.4,0c-5.25.82-10.32,2.53-15.5,3.72l-.52.12a34.52,34.52,0,0,1-6.73,1.68c-6.77,1.3-14.75,1.66-21.28-.84-1.53-.27-3-.62-4.51-1-5.18-1.19-10.25-2.9-15.5-3.72a68.17,68.17,0,0,0-16.4,0c-5.15.45-10.3.82-15.43,1.4A38,38,0,0,0,14.36,8.88,54.5,54.5,0,0,0,9,12.08c-1.59,1-3.62,2.08-4.84,3.56-2.05,2.53-1.77,6.55-1.45,9.58s.65,6.16,1,9.23c.23,2.08.58,3.94,2.39,5.2a18.63,18.63,0,0,1,3.89,2.87c2.16,2.5,2.79,5.78,3.32,8.94.6,3.6,1.18,7.3,4.44,9.47,2.76,1.83,6.27,2.44,9.51,2.76s6.29.29,9.44.37c3.8.1,7.59.47,11.39.65,7.66.39,16.79.71,22.57-5.18,4.72-4.81,8-12.06,9.3-18.62.74-3.78,1.11-8,3.74-11.11a10.48,10.48,0,0,1,15.3,0c2.63,3.06,3,7.33,3.74,11.11,1.29,6.56,4.58,13.81,9.3,18.62,5.78,5.89,14.91,5.57,22.57,5.18,3.8-.18,7.59-.55,11.39-.65,3.15-.08,6.31-.06,9.44-.37s6.75-.93,9.51-2.76c3.26-2.17,3.84-5.87,4.44-9.47.53-3.16,1.16-6.44,3.32-8.94a18.63,18.63,0,0,1,3.89-2.87c1.81-1.26,2.16-3.12,2.39-5.2Q179.44,29.85,179.92,25.22Z"/><path d="M169.07,22.87a61.44,61.44,0,0,1,0,14.28c-.44,4.18-.72,8.83-2.17,12.78-2.2,6-7.72,9.07-13.63,10.24a82.49,82.49,0,0,1-25.8,1.15c-6.84-.87-12.7-3.3-16.93-9-4.62-6.25-6.8-14.12-8.11-21.71-.68-4-1.58-8.39-.5-12.37a11.8,11.8,0,0,1,7.17-7.59c4-1.71,8.52-2.07,12.83-2.62a55.78,55.78,0,0,1,12.85-.24l.83,0c7.43-.33,15.57-.61,22.81,1.47C165.06,11.09,168.21,16.19,169.07,22.87Zm-2.84,18.92a78.84,78.84,0,0,0,1-13.2c-.07-3.71-.15-8.57-2.41-11.7a12.34,12.34,0,0,0-6.22-4.19A41.54,41.54,0,0,0,150,11a125.79,125.79,0,0,0-13-1.05c-3.42-.08-6.93-.12-10.44,0a113,113,0,0,0-11.92,1.93c-3.44.74-7.38,1.94-9.29,5.2-1.67,2.85-1.25,6.44-.87,9.57A59.7,59.7,0,0,0,111,47.56c2.94,5.45,7.29,9.21,13.32,10.58,7.53,1.7,15.58,1.5,23.19.54,5.77-.72,12.55-1.76,16-7.1C165.42,48.69,165.73,45.12,166.23,41.79Z"/><path class="cls-3" d="M167.25,28.59a78.84,78.84,0,0,1-1,13.2c-.5,3.33-.81,6.9-2.69,9.79-3.48,5.34-10.26,6.38-16,7.1-7.61,1-15.66,1.16-23.19-.54-6-1.37-10.38-5.13-13.32-10.58a59.7,59.7,0,0,1-6.54-20.94c-.38-3.13-.8-6.72.87-9.57,1.91-3.26,5.85-4.46,9.29-5.2a113,113,0,0,1,11.92-1.93c3.51-.13,7-.09,10.44,0A125.79,125.79,0,0,1,150,11a41.54,41.54,0,0,1,8.63,1.74,12.34,12.34,0,0,1,6.22,4.19C167.1,20,167.18,24.88,167.25,28.59Z"/><path d="M80.62,18.22c1.08,4,.18,8.4-.5,12.37C78.82,38.18,76.63,46.05,72,52.3c-4.23,5.72-10.09,8.15-16.93,9a82.49,82.49,0,0,1-25.8-1.15C23.37,59,17.85,55.92,15.65,49.93c-1.45-4-1.73-8.6-2.17-12.78a61.44,61.44,0,0,1,0-14.28c.86-6.68,4-11.78,10.62-13.68,7.24-2.08,15.38-1.8,22.81-1.47l.83,0A55.78,55.78,0,0,1,60.62,8c4.31.55,8.79.91,12.83,2.62C76.83,12.07,79.62,14.56,80.62,18.22Zm-2.5,8.4c.38-3.13.8-6.72-.87-9.57-1.91-3.26-5.85-4.46-9.29-5.2A113,113,0,0,0,56,9.92c-3.51-.13-7-.09-10.44,0a125.79,125.79,0,0,0-13,1.05A41.67,41.67,0,0,0,24,12.7a12.34,12.34,0,0,0-6.22,4.19c-2.26,3.13-2.34,8-2.41,11.7a78.84,78.84,0,0,0,1,13.2c.5,3.33.81,6.9,2.69,9.79,3.48,5.34,10.26,6.38,16,7.1,7.61,1,15.66,1.16,23.19-.54,6-1.37,10.38-5.13,13.32-10.58A59.7,59.7,0,0,0,78.12,26.62Z"/><path class="cls-3" d="M77.25,17.05c1.67,2.85,1.25,6.44.87,9.57a59.7,59.7,0,0,1-6.54,20.94C68.64,53,64.29,56.77,58.26,58.14c-7.53,1.7-15.58,1.5-23.19.54-5.77-.72-12.55-1.76-16-7.1-1.88-2.89-2.19-6.46-2.69-9.79a78.84,78.84,0,0,1-1-13.2c.07-3.71.15-8.57,2.41-11.7A12.34,12.34,0,0,1,24,12.7,41.67,41.67,0,0,1,32.59,11a125.79,125.79,0,0,1,13-1.05c3.42-.08,6.93-.12,10.44,0A113,113,0,0,1,68,11.85C71.4,12.59,75.34,13.79,77.25,17.05Z"/><path class="cls-4" d="M73.67,16.08c1-.3,2.2-.86,2.18-1.9s-1.19-1.52-2.16-1.79A109.25,109.25,0,0,0,29.43,9.75c-4.82.7-10,2-12.86,6-2.11,3-2.37,6.89-2.39,10.55,0,6.35.1,13.35,1.67,19.54.86,3.4,2.58,3.38,4.83,1.22q3-2.91,6.26-5.61A132.19,132.19,0,0,1,73.67,16.08Z"/><path class="cls-4" d="M160.54,18.48c1.69-.62,3.68-1.56,3.87-3.35a3.25,3.25,0,0,0-1.57-2.89,9.22,9.22,0,0,0-3.24-1.14,123.94,123.94,0,0,0-43.79-1.21c-4.32.66-9,1.77-11.68,5.22-3,3.82-2.54,9.24-1.48,14,1.15,5.1,2.66,11.09,5.56,15.5,3.4,5.17,6.88,1.91,10.36-1.13a136.08,136.08,0,0,1,25.92-17.8A134.63,134.63,0,0,1,160.54,18.48Z"/><path class="cls-5" d="M76.84,45.9c-2.57,3-4.19,6.49-6.61,9.55a14.39,14.39,0,0,1-9,5.22,84.79,84.79,0,0,1-26.6.73c-5.28-.65-12.22-.32-16.47-4-2.54-2.23-3-6-3.85-9.07A22.19,22.19,0,0,0,9.5,38.91c-1.29-1.43-3-2.39-3.73-4.26a21.5,21.5,0,0,1-1.12-6c-.18-2.27,0-4.53,0-6.8s-.52-4.27,0-6.36A1,1,0,0,0,2.67,15a16.66,16.66,0,0,0-.86,4.91c-.18,2.36-.51,4.71-.63,7.08-.2,3.6-.08,8,2,11.08C4.21,39.56,5.8,40.56,7,42a17.51,17.51,0,0,1,3.12,6c1.14,3.61,1.76,7.63,4.22,10.65,4,4.94,11.42,5.44,17.28,6,4.33.45,8.6,1,13,1.08a99.84,99.84,0,0,0,14.86-1c4.29-.6,8.38-1.65,11.67-4.63,3.79-3.42,5.72-8.12,7.73-12.67C79.35,46.24,77.86,44.72,76.84,45.9Z"/><path class="cls-5" d="M159.54,60.31c-3.12.07-6.25,1.5-9.38,1.87-3.45.41-6.92.35-10.38.44-7.25.2-14.74,0-21.59-2.63-6.68-2.6-10.48-7.39-12.33-14.2-1.54-5.67-1.92-11.94-5.52-16.82a10.45,10.45,0,0,0-7.58-4.54c-2.7-.21-6.14.66-7.56,3.16a.82.82,0,0,0,.91,1.19c3.15-.64,5.65-2.14,8.82-.43,2.76,1.48,4.24,4.68,5.14,7.54,1.79,5.7,2.11,11.74,4.85,17.14,6.13,12.09,22.4,13.89,34.43,13.58a114.2,114.2,0,0,0,11.55-.55c3.09-.4,7.49-.91,9.55-3.57A1.3,1.3,0,0,0,159.54,60.31Z"/><path class="cls-5" d="M172.32,26.48a37.54,37.54,0,0,0-2.84-11.07c-3-6.57-8.74-8-15.33-9a110.5,110.5,0,0,0-24.65-.94,108.23,108.23,0,0,0-12.3,1.69c-3.26.64-6.42,1.33-9,3.49-.7.59.2,1.53.92,1.19,3-1.39,6.44-1.81,9.65-2.32a91.33,91.33,0,0,1,11.2-1.1,126.06,126.06,0,0,1,22.38,1.42A47.68,47.68,0,0,1,160,11.34a9.87,9.87,0,0,1,6.32,6.21,37.7,37.7,0,0,1,2.45,10.63c.32,3.47-.16,7.2.63,10.59.28,1.2,1.77.93,2.16,0C173.09,35.13,172.76,30.34,172.32,26.48Z"/><path class="cls-5" d="M76.53,10.56C72.31,6.87,65.77,7,60.54,5.84A75.45,75.45,0,0,0,38.67,4.28c-6.73.51-14.19,1.81-20.15,5.16-4.38,2.45-7,8.57-6.85,13.48a1.05,1.05,0,0,0,1.95.52c1.38-1.85,1.8-4.28,2.82-6.33a9.45,9.45,0,0,1,5.76-5A66.45,66.45,0,0,1,40.75,8.36a89.11,89.11,0,0,1,19.71,1c2.36.36,4.69.62,7.07.82,2.66.22,5.56.35,7.89,1.78C76.29,12.54,77.33,11.25,76.53,10.56Z"/><path class="cls-6" d="M72,26.58c-.61-1.45-3.33-1.52-3.09.42.61,5-3,8.86-6.36,12C59,42.37,54.73,44.77,51.25,48.2c-2.5,2.44.67,6.4,3.67,4.76C63.44,48.28,76.71,37.8,72,26.58Z"/><path class="cls-6" d="M158.13,24.69c-1.26-2.81-6-.81-5,2.11,1.51,4.3-1.16,9.92-3.87,13.22-3.23,3.94-7.63,6.68-10.37,11-1.2,1.92.81,4.69,3,3.94a28,28,0,0,0,14.43-12C159.45,37.87,160.62,30.25,158.13,24.69Z"/><path class="cls-6" d="M44.77,48.33a3.16,3.16,0,0,0-4.48,0,3.16,3.16,0,0,0,0,4.48,3.16,3.16,0,0,0,4.48,0,3.16,3.16,0,0,0,0-4.48Z"/><path class="cls-6" d="M132.31,49.62a2.93,2.93,0,0,0-3,0l-.13.09a2.9,2.9,0,0,0-1,1,2.89,2.89,0,0,0,0,2.9,3,3,0,0,0,1,1l.13.09a2.93,2.93,0,0,0,3,0,3,3,0,0,0,0-5.14Z"/></g></g></g></svg>