<svg xmlns="http://www.w3.org/2000/svg" viewBox="0 0 183.19 71.66"><defs><style>.cls-1{isolation:isolate;}.cls-2{fill:#008fd0;}.cls-3,.cls-4{fill:#deeff9;}.cls-4{opacity:0.45;}.cls-4,.cls-5{mix-blend-mode:multiply;}.cls-5{fill:#89534d;opacity:0.3;}.cls-6{fill:#fff;opacity:0.15;}</style></defs><g class="cls-1"><g id="Layer_2" data-name="Layer 2"><g id="OBJECTS"><path class="cls-2" d="M179.91,5.94c.32.57-.18,1.89-.33,2.45-.45,1.68-.89,3.35-1.22,5.07-.82,4.33-1.38,8.72-2.05,13.07-1.32,8.61-2.9,17.52-7.81,24.9a38.24,38.24,0,0,1-16.33,13.44c-13.33,5.95-30.06,4.51-39.73-7.3-4.48-5.47-5.68-11.93-8.06-18.36-1.54-4.17-3.93-8.47-8.14-10.42A9,9,0,0,0,90,27.94a12.14,12.14,0,0,0-6.12,3,21.18,21.18,0,0,0-5,8.3c-2.38,6.43-3.58,12.89-8.06,18.36C61.09,69.38,44.35,70.82,31,64.87A38.24,38.24,0,0,1,14.69,51.43C9.78,44.05,8.2,35.14,6.88,26.53c-.67-4.35-1.23-8.74-2-13.07-.33-1.72-.77-3.39-1.22-5.07C3.46,7.83,3,6.51,3.28,5.94s1.38-.65,2-.75A148.86,148.86,0,0,1,33.43,3.6c10.47.32,21,1.38,31,4.66A113.75,113.75,0,0,1,79.17,14.8c3.93,1.94,8.19,3.79,12.67,3.7s8.31-1.79,12.18-3.7a113.75,113.75,0,0,1,14.77-6.54c10-3.28,20.5-4.34,31-4.66A148.86,148.86,0,0,1,177.9,5.19C178.54,5.29,179.58,5.38,179.91,5.94ZM166.75,41.33c2.59-7.66,4-16.76,1.79-24.69-1.61-5.75-6.35-8.77-12.06-9.48-4.75-.58-9.56.17-14.3,1.08-4.61-.19-9.23.92-13.71,2-4.87,1.14-9.81,2.22-14.36,4.38-6.8,3.23-8.73,9.77-7.89,16.88,1.64,13.9,8.64,28.9,23.75,31.57,8.41,1.49,17-.72,24.16-5.16C160.46,54,164.39,48.32,166.75,41.33ZM77,31.46c.84-7.11-1.09-13.65-7.89-16.88-4.55-2.16-9.49-3.24-14.36-4.38-4.48-1-9.09-2.15-13.71-2-4.74-.91-9.55-1.66-14.3-1.08-5.71.71-10.45,3.73-12.06,9.48-2.22,7.93-.8,17,1.79,24.69,2.36,7,6.29,12.63,12.62,16.54,7.2,4.44,15.75,6.65,24.16,5.16C68.33,60.36,75.33,45.36,77,31.46Z"/><path d="M177.84,1.71c2.72.35,5.91,1.48,5.27,4.86-.32,1.63-1.26,3-1.77,4.61a53.42,53.42,0,0,0-1.58,7.2c-1.67,9.32-1.93,18.9-5.46,27.81a38.68,38.68,0,0,1-13.71,17.27c-12.13,8.67-28.83,11.32-42.15,3.73a31.78,31.78,0,0,1-15-19.12c-1.19-4.43-1.61-9.28-4-13.27-2.66-4.39-8.41-6.31-12.84-3.11A11.37,11.37,0,0,0,83,36.33C81.27,40,80.8,44.16,79.75,48.07a31.78,31.78,0,0,1-15,19.12c-13.32,7.59-30,4.94-42.15-3.73A38.68,38.68,0,0,1,8.89,46.19C5.36,37.28,5.1,27.7,3.43,18.38a53.42,53.42,0,0,0-1.58-7.2C1.34,9.62.4,8.2.08,6.57-.56,3.19,2.63,2.06,5.35,1.71A172.62,172.62,0,0,1,35.66.14C45.42.57,55.21,1.66,64.5,4.86A70.46,70.46,0,0,1,77.5,11a83.71,83.71,0,0,0,8.06,4.51c2.77,1.26,7,1.88,9.87.91,3.66-1.23,7-3.46,10.26-5.42a70.46,70.46,0,0,1,13-6.13C128,1.66,137.77.57,147.53.14A172.57,172.57,0,0,1,177.84,1.71Zm1.74,6.68c.15-.56.65-1.88.33-2.45s-1.37-.65-2-.75A148.86,148.86,0,0,0,149.76,3.6c-10.47.32-21,1.38-31,4.66A113.75,113.75,0,0,0,104,14.8c-3.87,1.91-7.79,3.61-12.18,3.7s-8.74-1.76-12.67-3.7A113.75,113.75,0,0,0,64.4,8.26c-10-3.28-20.5-4.34-31-4.66A148.86,148.86,0,0,0,5.29,5.19c-.63.1-1.68.19-2,.75s.18,1.89.33,2.45c.45,1.68.89,3.35,1.22,5.07.82,4.33,1.38,8.72,2.05,13.07,1.32,8.61,2.9,17.52,7.81,24.9A38.24,38.24,0,0,0,31,64.87c13.33,5.95,30.07,4.51,39.73-7.3,4.48-5.47,5.68-11.93,8.06-18.36a21.18,21.18,0,0,1,5-8.3,12.14,12.14,0,0,1,6.12-3,9,9,0,0,1,6.29.85c4.21,1.95,6.6,6.25,8.14,10.42,2.38,6.43,3.58,12.89,8.06,18.36,9.67,11.81,26.4,13.25,39.73,7.3A38.24,38.24,0,0,0,168.5,51.43c4.91-7.38,6.49-16.29,7.81-24.9.67-4.35,1.23-8.74,2.05-13.07C178.69,11.74,179.13,10.07,179.58,8.39Z"/><path d="M168.54,16.64c2.22,7.93.8,17-1.79,24.69-2.36,7-6.29,12.63-12.62,16.54-7.2,4.44-15.75,6.65-24.16,5.16-15.11-2.67-22.11-17.67-23.75-31.57-.84-7.11,1.09-13.65,7.89-16.88,4.55-2.16,9.49-3.24,14.36-4.38,4.48-1,9.1-2.15,13.71-2,4.74-.91,9.55-1.66,14.3-1.08C162.19,7.87,166.93,10.89,168.54,16.64Zm-5.46,28.1a44.65,44.65,0,0,0,4-22.82c-.7-6.17-3.73-10.36-9.93-11.7-6.36-1.37-13.36-.08-19.69.79-2.6.35-5.24.74-7.88,1.23-3.22.79-6.4,1.73-9.49,2.78s-6.88,2.35-9,5.11a12.47,12.47,0,0,0-2.23,7.64c0,5.24,1.58,10.47,3.26,15.38,2.22,6.55,6.84,12.87,13.38,15.6C138.72,64.3,157,58.15,163.08,44.74Z"/><path class="cls-3" d="M167.05,21.92a44.65,44.65,0,0,1-4,22.82c-6.06,13.41-24.36,19.56-37.63,14-6.54-2.73-11.16-9-13.38-15.6-1.68-4.91-3.29-10.14-3.26-15.38A12.47,12.47,0,0,1,111,20.13c2.14-2.76,5.84-4,9-5.11s6.27-2,9.49-2.78c2.64-.49,5.28-.88,7.88-1.23,6.33-.87,13.33-2.16,19.69-.79C163.32,11.56,166.35,15.75,167.05,21.92Z"/><path d="M69.08,14.58c6.8,3.23,8.73,9.77,7.89,16.88C75.33,45.36,68.33,60.36,53.22,63c-8.41,1.49-17-.72-24.16-5.16C22.73,54,18.8,48.32,16.44,41.33c-2.59-7.66-4-16.76-1.79-24.69C16.26,10.89,21,7.87,26.71,7.16c4.75-.58,9.56.17,14.3,1.08,4.62-.19,9.23.92,13.71,2C59.59,11.34,64.53,12.42,69.08,14.58Zm2,28.57c1.68-4.91,3.3-10.14,3.26-15.38a12.47,12.47,0,0,0-2.23-7.64c-2.13-2.76-5.84-4-9-5.11s-6.27-2-9.49-2.78c-2.63-.49-5.28-.88-7.88-1.23-6.33-.87-13.33-2.16-19.69-.79-6.2,1.34-9.23,5.53-9.93,11.7a44.55,44.55,0,0,0,4,22.82c6.05,13.41,24.35,19.56,37.62,14C64.28,56,68.9,49.7,71.12,43.15Z"/><path class="cls-3" d="M74.38,27.77c0,5.24-1.58,10.47-3.26,15.38C68.9,49.7,64.28,56,57.74,58.75c-13.27,5.55-31.57-.6-37.62-14a44.55,44.55,0,0,1-4-22.82c.7-6.17,3.73-10.36,9.93-11.7,6.36-1.37,13.36-.08,19.69.79,2.6.35,5.25.74,7.88,1.23C56.86,13,60,14,63.13,15s6.89,2.35,9,5.11A12.47,12.47,0,0,1,74.38,27.77Z"/><path class="cls-4" d="M160.46,10.21c-1.67-1.52-4.11-1.78-6.36-1.89a102.17,102.17,0,0,0-30.31,3.06A34.36,34.36,0,0,0,114,15.14,15.08,15.08,0,0,0,107.42,23c-1.12,3.45-.57,7.21.24,10.74a76.69,76.69,0,0,0,2.6,8.77c.63,1.74,1.6,6.26,4,6.53,2,.23,3-3.7,3.74-5.13a67.18,67.18,0,0,1,4-6.51,70.52,70.52,0,0,1,22.46-20.54A66.82,66.82,0,0,1,160.46,10.21Z"/><path class="cls-4" d="M74.47,20.2c-2.52-2.63-6-4.18-9.36-5.46a93.71,93.71,0,0,0-35.74-6c-4,.12-8.39.7-11,3.7-1.87,2.15-2.43,5.13-2.68,8a52.21,52.21,0,0,0,4.52,26.08c.43.94,1,3.11,2.22,3.22,1,.09,2.52-1.68,3.26-2.28A166.61,166.61,0,0,1,74.47,20.2Z"/><path class="cls-5" d="M95.89,25.16a11.68,11.68,0,0,0-11.67,1.1c-3.67,2.46-5.76,6.24-7.15,10.33-3,8.91-4.33,19.54-13.4,24.51A37.07,37.07,0,0,1,33.2,62.75,32.15,32.15,0,0,1,20.76,54c-3.27-3.8-5.17-8.62-7-13.22a107.88,107.88,0,0,1-4.67-17A139,139,0,0,0,3.51,5.52a1.16,1.16,0,0,0-2.23.62c1.19,5.68,2.51,11.33,3.67,17s2.1,11.1,3.92,16.45c3.26,9.55,7.5,18.23,16.18,23.92,9.15,6,20.34,7.44,30.89,5,4.6-1.07,9.25-2.79,12.89-5.89s5.78-7.48,7.51-11.8c2-5,3.11-10.44,5.43-15.31,2.68-5.59,7.52-7.85,13.52-8.16C96.36,27.29,97,25.69,95.89,25.16Z"/><path class="cls-5" d="M171.64,40.27c-2.24,2.69-3.84,5.79-5.8,8.68a46.19,46.19,0,0,1-7,8.31c-5.75,5.21-12.23,7.32-19.93,7.22a93.84,93.84,0,0,1-11-1A25.48,25.48,0,0,1,118.8,61c-6.81-3.74-9.56-12.14-12.3-18.92a.44.44,0,0,0-.84.23c1,6.52,2.18,13.13,6.56,18.35,3.82,4.54,9.48,6.14,15.13,7,6.31.91,12.7,1.56,19,.51a28.44,28.44,0,0,0,16.27-9,48.88,48.88,0,0,0,10.61-17.87C173.54,40.33,172.27,39.51,171.64,40.27Z"/><path class="cls-5" d="M164.52,9c-7.8-5.82-19.7-5.2-28.76-3.56a78.79,78.79,0,0,0-28,11.36.9.9,0,0,0,.91,1.56c8.74-3.76,17.57-7.22,26.95-9a60.52,60.52,0,0,1,14-1c4.82.23,9.37,1.62,14.08,2.5A1,1,0,0,0,164.52,9Z"/><path class="cls-5" d="M72.85,14.82C63.63,8.24,51.91,6.25,41,4.59c-5.29-.81-10.61-1.69-15.78.17A20.67,20.67,0,0,0,14.49,13.2c-.5.8.52,1.88,1.33,1.33,3.56-2.4,6.82-5.13,11.05-6.27,5-1.37,10.26-.11,15.3.6,10.3,1.44,20,3.6,29.66,7.71A1,1,0,0,0,72.85,14.82Z"/><path class="cls-6" d="M66.32,26.79c-3.13,4.41-3.89,10-7.09,14.34-2.67,3.68-6.43,4.7-10.5,6.15-2.55.91-3.2,5.27,0,5.85,6,1.08,11.53-1.88,15.14-6.62a21.08,21.08,0,0,0,3.87-8.25c.76-3.33.88-6.76,2.19-9.95C70.84,26.1,67.51,25.1,66.32,26.79Z"/><path class="cls-6" d="M41.34,49.63a.14.14,0,0,1,0-.07,2.39,2.39,0,0,0-.22-.67,1.55,1.55,0,0,0-.37-.63,2.19,2.19,0,0,0-.82-.75,1.53,1.53,0,0,0-.37-.16,2.18,2.18,0,0,0-1.13-.25,3,3,0,0,0-1.49.41,3.25,3.25,0,0,0-1.14,1.13,3.47,3.47,0,0,0-.42,1.6A3.56,3.56,0,0,0,35.85,52a3,3,0,0,0,1.79,1.38,2.9,2.9,0,0,0,1.6,0,2.2,2.2,0,0,0,1-.54A2.25,2.25,0,0,0,41,52a2.14,2.14,0,0,0,.35-1.12A2.23,2.23,0,0,0,41.34,49.63Z"/><path class="cls-6" d="M160.24,26.51c0-1.89-.63-3.9-.2-5.77a2.19,2.19,0,0,0-4.23-1.16c-1,2.85-.59,6.12-1.22,9.08a28.68,28.68,0,0,1-3.09,8.88c-2.93,4.91-7.28,7.41-12.41,9.51-2.57,1.05-3.17,5,0,5.85,7.23,1.87,14-4.37,17.37-10.14a27.33,27.33,0,0,0,3.47-10.42A39.22,39.22,0,0,0,160.24,26.51Z"/><path class="cls-6" d="M133.18,44a3,3,0,0,0-2.07-.86A2.94,2.94,0,0,0,128.19,46a2.92,2.92,0,0,0,.86,2.07A2.93,2.93,0,0,0,134,46,2.94,2.94,0,0,0,133.18,44Z"/></g></g></g></svg>