<svg xmlns="http://www.w3.org/2000/svg" viewBox="0 0 183.68 72.55"><defs><style>.cls-1{isolation:isolate;}.cls-2{fill:#c45339;}.cls-3,.cls-4{fill:#82adcf;}.cls-4{opacity:0.45;}.cls-4,.cls-5{mix-blend-mode:multiply;}.cls-5{fill:#89534d;opacity:0.3;}.cls-6{fill:#fff;opacity:0.15;}</style></defs><g class="cls-1"><g id="Layer_2" data-name="Layer 2"><g id="OBJECTS"><path class="cls-2" d="M180.56,13.65c.94,9.74,1.16,19.22-.38,28.92-1.29,8.1-3.54,15.79-11.24,19.9-6.88,3.67-15.38,5.09-23.05,6-8.62,1-18.5,1.34-26.6-2.3-7.06-3.17-11.39-9.89-13.9-17-1.48-4.16-1.8-8.8-4.12-12.65-1.69-2.81-5.87-7.06-9.4-6.78-4,.32-7.52,3.55-9.46,6.78C80.09,40.4,79.77,45,78.29,49.2c-2.51,7.08-6.84,13.8-13.9,17-8.1,3.64-18,3.32-26.6,2.3-7.67-.91-16.17-2.33-23-6C7,58.36,4.79,50.67,3.5,42.57,2,32.87,2.18,23.39,3.12,13.65c.19-2,.23-4.58,1.71-6.16s3.56-1.82,5.39-2.26A64.2,64.2,0,0,1,23.61,3.51c9.58-.24,19.06,1.41,28.56,2.36,7.83.79,16.62.18,23.62,4.35,3.28,1.95,5.42,5.34,8.28,7.79a11.42,11.42,0,0,0,13.56,1.46c4-2.37,6.26-6.87,10.26-9.25,7-4.17,15.79-3.56,23.62-4.35,9.5-1,19-2.6,28.56-2.36a64.2,64.2,0,0,1,13.39,1.72c1.83.44,4,.83,5.39,2.26S180.37,11.62,180.56,13.65ZM172.3,46.77c3-7.57,2.58-15.92,1.29-23.86C172.41,15.67,169,9.32,161.3,7.81c-7.46-1.46-15.55-.73-23.21.23-3.23.11-6.46.38-9.65.76a62,62,0,0,0-12.89,2.49c-3.49,1.21-6.88,3.12-8.57,6.54-1.87,3.81-1.46,8.54-1.06,12.62.84,8.34,3.22,17,7.93,24A21.77,21.77,0,0,0,121.59,62,33.39,33.39,0,0,0,132.8,65.1a59.17,59.17,0,0,0,25.3-2.59c3.37-1.08,6.67-2.58,9-5.38C169.49,54.12,170.88,50.33,172.3,46.77ZM77.76,30.45c.4-4.08.81-8.81-1.06-12.62-1.69-3.42-5.08-5.33-8.57-6.54A62,62,0,0,0,55.24,8.8c-3.19-.38-6.42-.65-9.65-.76-7.66-1-15.75-1.69-23.21-.23-7.66,1.51-11.11,7.86-12.29,15.1C8.8,30.85,8.35,39.2,11.38,46.77c1.42,3.56,2.82,7.35,5.25,10.36,2.28,2.8,5.58,4.3,9,5.38a59.17,59.17,0,0,0,25.3,2.59A33.39,33.39,0,0,0,62.09,62a21.77,21.77,0,0,0,7.74-7.46C74.54,47.46,76.92,38.79,77.76,30.45Z"/><path class="cls-3" d="M172.18,28.37c.27,3.75.6,7.69-.08,11.41a45.3,45.3,0,0,1-3.63,10.08c-1.55,3.49-3.38,6.74-6.86,8.61a36.41,36.41,0,0,1-9.67,3.1,51.38,51.38,0,0,1-23.37-.12,19.8,19.8,0,0,1-9.07-4.6,30.26,30.26,0,0,1-6-9,54.41,54.41,0,0,1-5-22.83c0-3.3.51-6.34,3.1-8.62a14.12,14.12,0,0,1,2.72-1.87,61.4,61.4,0,0,1,8.23-2,122.75,122.75,0,0,1,13.89-1.94c8.56-.65,18.2-1.71,26.58.64C170.28,13.28,171.7,21.89,172.18,28.37Z"/><path class="cls-3" d="M72.11,16.42c2.59,2.28,3.1,5.32,3.1,8.62a54.41,54.41,0,0,1-5,22.83,30.26,30.26,0,0,1-6,9,19.8,19.8,0,0,1-9.07,4.6,51.38,51.38,0,0,1-23.37.12,36.41,36.41,0,0,1-9.67-3.1c-3.48-1.87-5.3-5.12-6.86-8.61a45.3,45.3,0,0,1-3.63-10.08c-.68-3.72-.35-7.66-.07-11.41.47-6.48,1.89-15.09,9.18-17.14,8.38-2.35,18-1.29,26.58-.64a122.75,122.75,0,0,1,13.89,1.94,61.4,61.4,0,0,1,8.23,2A14.12,14.12,0,0,1,72.11,16.42Z"/><path d="M183.45,22a117.76,117.76,0,0,1-.08,15.94c-.6,7.89-1.33,17.17-7,23.24-5.42,5.77-14,7.81-21.46,9.33-9,1.84-18.36,2.79-27.53,1.41-9.39-1.41-17-5.87-21.85-14.21a42.75,42.75,0,0,1-4.65-13.23c-.53-2.65-1.09-5.39-2.65-7.67-2-2.94-5.8-6.1-9.31-3.42a15.49,15.49,0,0,0-3.39,3.42c-1.56,2.28-2.12,5-2.65,7.67a42.75,42.75,0,0,1-4.65,13.23C73.38,66,65.74,70.48,56.34,71.89c-9.17,1.38-18.5.43-27.53-1.41-7.47-1.52-16-3.56-21.46-9.33C1.64,55.08.91,45.8.31,37.91A117.76,117.76,0,0,1,.23,22C.5,17.64.47,12.74,1.68,8.54,2.72,5,5.61,3.16,9.06,2.2A60.57,60.57,0,0,1,22.77,0c10.07-.35,20,1.46,30,2.56,7.48.82,15.33.69,22.25,4.07a20.88,20.88,0,0,1,7.5,6.69A24.14,24.14,0,0,0,86.73,18a9.83,9.83,0,0,0,7.92,1.34c2.8-1,4.79-3.71,6.52-6a20.88,20.88,0,0,1,7.5-6.69c6.92-3.38,14.77-3.25,22.25-4.07,10-1.1,19.92-2.91,30-2.56A60.57,60.57,0,0,1,174.62,2.2C178.07,3.16,181,5,182,8.54,183.21,12.74,183.18,17.64,183.45,22Zm-3.27,20.6c1.54-9.7,1.32-19.18.38-28.92-.19-2-.23-4.58-1.71-6.16s-3.56-1.82-5.39-2.26a64.2,64.2,0,0,0-13.39-1.72c-9.58-.24-19.06,1.41-28.56,2.36-7.83.79-16.62.18-23.62,4.35-4,2.38-6.24,6.88-10.26,9.25A11.42,11.42,0,0,1,84.07,18c-2.86-2.45-5-5.84-8.28-7.79C68.79,6.05,60,6.66,52.17,5.87c-9.5-1-19-2.6-28.56-2.36A64.2,64.2,0,0,0,10.22,5.23c-1.83.44-4,.83-5.39,2.26s-1.52,4.13-1.71,6.16C2.18,23.39,2,32.87,3.5,42.57,4.79,50.67,7,58.36,14.74,62.47c6.88,3.67,15.38,5.09,23,6,8.62,1,18.5,1.34,26.6-2.3,7.06-3.17,11.39-9.89,13.9-17,1.48-4.16,1.8-8.8,4.12-12.65,1.94-3.23,5.49-6.46,9.46-6.78,3.53-.28,7.71,4,9.4,6.78,2.32,3.85,2.64,8.49,4.12,12.65,2.51,7.08,6.84,13.8,13.9,17,8.1,3.64,18,3.32,26.6,2.3,7.67-.91,16.17-2.33,23.05-6C176.64,58.36,178.89,50.67,180.18,42.57Z"/><path d="M173.59,22.91c1.29,7.94,1.74,16.29-1.29,23.86-1.42,3.56-2.81,7.35-5.25,10.36-2.28,2.8-5.58,4.3-9,5.38a59.17,59.17,0,0,1-25.3,2.59A33.39,33.39,0,0,1,121.59,62a21.77,21.77,0,0,1-7.74-7.46c-4.71-7-7.09-15.7-7.93-24-.4-4.08-.81-8.81,1.06-12.62,1.69-3.42,5.08-5.33,8.57-6.54A62,62,0,0,1,128.44,8.8c3.19-.38,6.42-.65,9.65-.76,7.66-1,15.75-1.69,23.21-.23C169,9.32,172.41,15.67,173.59,22.91ZM172.1,39.78c.68-3.72.35-7.66.08-11.41-.48-6.48-1.9-15.09-9.19-17.14-8.38-2.35-18-1.29-26.58-.64a122.75,122.75,0,0,0-13.89,1.94,61.4,61.4,0,0,0-8.23,2,14.12,14.12,0,0,0-2.72,1.87c-2.59,2.28-3.1,5.32-3.1,8.62a54.41,54.41,0,0,0,5,22.83,30.26,30.26,0,0,0,6,9,19.8,19.8,0,0,0,9.07,4.6,51.38,51.38,0,0,0,23.37.12,36.41,36.41,0,0,0,9.67-3.1c3.48-1.87,5.31-5.12,6.86-8.61A45.3,45.3,0,0,0,172.1,39.78Z"/><path d="M76.7,17.83c1.87,3.81,1.46,8.54,1.06,12.62-.84,8.34-3.22,17-7.93,24A21.77,21.77,0,0,1,62.09,62,33.39,33.39,0,0,1,50.88,65.1a59.17,59.17,0,0,1-25.3-2.59c-3.37-1.08-6.67-2.58-8.95-5.38-2.43-3-3.83-6.8-5.25-10.36-3-7.57-2.58-15.92-1.29-23.86,1.18-7.24,4.63-13.59,12.29-15.1,7.46-1.46,15.55-.73,23.21.23,3.23.11,6.46.38,9.65.76a62,62,0,0,1,12.89,2.49C71.62,12.5,75,14.41,76.7,17.83ZM75.21,25c0-3.3-.51-6.34-3.1-8.62a14.12,14.12,0,0,0-2.72-1.87,61.4,61.4,0,0,0-8.23-2,122.75,122.75,0,0,0-13.89-1.94c-8.56-.65-18.2-1.71-26.58.64-7.29,2-8.71,10.66-9.18,17.14-.28,3.75-.61,7.69.07,11.41a45.3,45.3,0,0,0,3.63,10.08c1.56,3.49,3.38,6.74,6.86,8.61a36.41,36.41,0,0,0,9.67,3.1,51.38,51.38,0,0,0,23.37-.12,19.8,19.8,0,0,0,9.07-4.6,30.26,30.26,0,0,0,6-9A54.41,54.41,0,0,0,75.21,25Z"/><path class="cls-4" d="M66.5,21.23a13.33,13.33,0,0,0,4.55-1.59A4.07,4.07,0,0,0,73,15.51c-.52-2-2.88-2.86-4.91-3.34a152.69,152.69,0,0,0-37.74-4c-4.81.09-10,.57-13.58,3.8-2.52,2.3-3.8,5.64-4.64,8.94a47.67,47.67,0,0,0-.78,19.54,47.19,47.19,0,0,0,2.59,9.48c.31.8,1.2,4,2.19,4,.7,0,2.38-2.83,2.85-3.41A87.68,87.68,0,0,1,47.18,28.16,85.52,85.52,0,0,1,66.5,21.23Z"/><path class="cls-4" d="M162.63,14.44a8,8,0,0,0,2.12-1.6,2.53,2.53,0,0,0,.53-2.48c-.48-1.18-1.95-1.53-3.21-1.71a115.9,115.9,0,0,0-45.26,2.82c-2.39.63-4.87,1.41-6.6,3.18-2.27,2.32-2.75,5.84-2.8,9.1A53.17,53.17,0,0,0,114,50.16c.47.86,1.46,3.43,2.47,3.71,1.27.37,2.27-1.63,3-2.47A166,166,0,0,1,145.58,26,162.93,162.93,0,0,1,162.63,14.44Z"/><path class="cls-5" d="M84.9,30c-3.84,1.52-5.55,5.68-6.68,9.4-1.3,4.27-1.89,8.71-3.81,12.78-2.18,4.61-5.5,8.85-10.16,11.08a28.13,28.13,0,0,1-6.81,2.5,42.47,42.47,0,0,1-8.95.37,101.85,101.85,0,0,1-16.71-1.66c-5-.92-10-1.62-14.65-3.74A15.2,15.2,0,0,1,8.69,52,50,50,0,0,1,6.13,40.51c-.78-5.72-1.44-11.42-1.7-17.19a69.68,69.68,0,0,1,.18-9.25c.21-2.31-.05-5.67,1.25-7.65A.88.88,0,0,0,4.48,5.35C3.09,6.84,2.75,8.79,2.3,10.72A70.06,70.06,0,0,0,.74,19.09c-.65,6,0,12,.73,17.93,1,8.22,1.55,18.13,8.16,24.06,3.74,3.36,9,5.12,13.85,6.2a129.88,129.88,0,0,0,17.08,2.78c2.92.24,5.9.25,8.83.28a32.68,32.68,0,0,0,9.51-.81,28.84,28.84,0,0,0,12.94-8.6A43.61,43.61,0,0,0,80,46.54c.85-2.46,1.46-5,2.35-7.44,1-2.7,2.58-4.9,3.86-7.42C86.64,30.86,85.93,29.55,84.9,30Z"/><path class="cls-5" d="M174.2,57.14c-3.24,1.38-5.77,4-9,5.45-3.6,1.55-7.77,2.07-11.63,2.66a114.21,114.21,0,0,1-19.46,1.39c-5.66-.12-11.68-1.07-16.3-4.6-2.57-2-4.2-4.56-5.88-7.28A62.58,62.58,0,0,1,106.59,44c-2.43-6.33-5.88-13.21-13.36-14.14A.58.58,0,0,0,92.94,31c7.72,3.27,8.66,11.33,11.36,18.27,2.46,6.35,6.25,13.15,12,17.05,10.37,7,25.35,4.92,37,3.14,8.12-1.24,17.76-3.11,22.33-10.86C176.21,57.59,175.1,56.76,174.2,57.14Z"/><path class="cls-5" d="M173.57,15.68c-1.34-11.23-17.1-10.19-25.18-9.76-7.4.4-14.77.85-22.1,2-6.49,1-13.65,1.74-18.83,6.16-.69.58.2,1.73,1,1.25,5.31-3.41,12.15-3.87,18.24-4.67,6.84-.9,13.72-1.17,20.6-1.43a57.07,57.07,0,0,1,13.32.54c4.49.9,7.79,2.81,10.27,6.69C171.56,17.52,173.76,17.22,173.57,15.68Z"/><path class="cls-5" d="M75,14.92C71,10.17,65.51,8.4,59.57,7.2a147.16,147.16,0,0,0-20-2.52c-6.27-.37-13.14-.62-19.27,1a13.58,13.58,0,0,0-9.84,8.86c-.43,1.3,1.48,2.5,2.39,1.39,2.85-3.5,5.35-6.05,10-6.92C28.71,7.89,35,8.09,40.93,8.48c11.45.76,23,2.51,33.6,7.09A.41.41,0,0,0,75,14.92Z"/><path class="cls-6" d="M167.74,19.68c0-3.17-4.49-3-4.82,0-.8,7.21-.08,15.37-3.82,21.87a17.24,17.24,0,0,1-4.79,5.27c-2.45,1.81-5.25,2.87-7.55,4.9-1.27,1.12-.72,3.76,1.06,4,7,1,13.71-4.34,16.9-10.25C169.08,37.41,167.75,28.47,167.74,19.68Z"/><path class="cls-6" d="M138.91,53.92a.93.93,0,0,0-.15-.39,2.29,2.29,0,0,0-.61-1,3.51,3.51,0,0,0-1.6-.9,3.1,3.1,0,0,0-1.6,0l-.72.3a3.1,3.1,0,0,0-1.08,1.08,2.17,2.17,0,0,0-.35,1.12,2.33,2.33,0,0,0,0,1.2,2.2,2.2,0,0,0,.54,1,2.25,2.25,0,0,0,.84.78,3,3,0,0,0,1.36.39,4.92,4.92,0,0,0,.5.06,3,3,0,0,0,1.48-.4,2.22,2.22,0,0,0,.82-.76,2.15,2.15,0,0,0,.52-1A3,3,0,0,0,138.91,53.92Z"/><path class="cls-6" d="M69.79,25.86c-.73-1.55-3.17-.44-2.73,1.15.82,3-1,5.7-2.56,8.09A38.59,38.59,0,0,1,59,41.77a30.84,30.84,0,0,1-7.62,5.55c-2.9,1.47-5.82,2.59-8.25,4.78a2.22,2.22,0,0,0,1,3.67C52,57.36,60,50.54,64.48,44.66,68.23,39.7,72.74,32.18,69.79,25.86Z"/><path class="cls-6" d="M35.89,52.06h0a2.77,2.77,0,0,0-.39-1.43l-.44-.57a2.06,2.06,0,0,0-.91-.58,2.85,2.85,0,0,0-1.93-.15,3.22,3.22,0,0,0-1.42.84A3,3,0,0,0,35,54.38,3.09,3.09,0,0,0,35.89,52.06Z"/></g></g></g></svg>