<svg xmlns="http://www.w3.org/2000/svg" viewBox="0 0 187.03 67.7"><defs><style>.cls-1{isolation:isolate;}.cls-2{fill:#ec84bf;}.cls-3,.cls-4{fill:#6d6187;}.cls-4{opacity:0.45;}.cls-4,.cls-5{mix-blend-mode:multiply;}.cls-5{fill:#89534d;opacity:0.3;}.cls-6{fill:#fff;opacity:0.15;}</style></defs><g class="cls-1"><g id="Layer_2" data-name="Layer 2"><g id="OBJECTS"><path class="cls-2" d="M181.8,16.29c1.61.81,3.07,1.31,2.83,3.35-.18,1.58-.59,3.19-.91,4.74-3,14.52-11.84,29-25.66,35.26-12.48,5.69-29.08,7.2-40.66-1.33-6.34-4.66-10.27-11.85-12.6-19.21-1.48-4.69-4.26-11.15-9.7-12.18C87.69,25.52,84,33.39,82.23,39.09,79.9,46.46,76,53.65,69.63,58.31c-11.58,8.53-28.18,7-40.66,1.33C15.15,53.34,6.33,38.9,3.31,24.38c-.32-1.55-.73-3.16-.91-4.74-.24-2,1.22-2.54,2.83-3.35,3-1.49,6.08-2.84,9.11-4.25A89.29,89.29,0,0,1,39,4.3C48.17,3,58.18,3,67.1,5.56A33.93,33.93,0,0,1,79.35,12a37,37,0,0,0,5.23,3.92,17.62,17.62,0,0,0,17.87,0A37,37,0,0,0,107.68,12a33.93,33.93,0,0,1,12.25-6.4C128.85,3,138.86,3,148,4.3A89.29,89.29,0,0,1,172.69,12C175.72,13.45,178.81,14.8,181.8,16.29ZM167.38,33.05c.24-4.17,0-8.36-1.66-12.25-3.11-7.19-10.26-11.29-17.59-13A45.15,45.15,0,0,0,133,6.87c-13.38.18-28.73,5.35-28.09,20.18.31,7,3.18,14.2,6.87,20.14a27.88,27.88,0,0,0,16.79,12.25c13,3.34,30.77-1.87,36.46-14.95A33.1,33.1,0,0,0,167.38,33.05Zm-85.3-6C82.72,12.22,67.37,7.05,54,6.87a45.15,45.15,0,0,0-15.09.89c-7.33,1.75-14.48,5.85-17.59,13-1.68,3.89-1.9,8.08-1.66,12.25A33.1,33.1,0,0,0,22,44.49c5.69,13.08,23.5,18.29,36.46,14.95A27.88,27.88,0,0,0,75.21,47.19C78.9,41.25,81.77,34.08,82.08,27.05Z"/><path d="M186.82,17.37c.46,1.32.05,2.89-.23,4.2-.41,1.88-.76,3.78-1.2,5.66a63.29,63.29,0,0,1-3.69,10.9,51.43,51.43,0,0,1-14.06,19.18c-11.24,9.15-28.35,12.85-42.3,8.69a33.59,33.59,0,0,1-19.6-15.85,60.54,60.54,0,0,1-4.85-12.49c-1.27-4.15-3.22-7.39-7.38-8.79-4.15,1.4-6.1,4.64-7.37,8.79a60.54,60.54,0,0,1-4.85,12.49A33.59,33.59,0,0,1,61.69,66c-13.95,4.16-31.06.46-42.3-8.69A51.32,51.32,0,0,1,5.33,38.13a63.29,63.29,0,0,1-3.69-10.9C1.2,25.35.85,23.45.44,21.57c-.28-1.31-.69-2.88-.23-4.2.87-2.51,4.35-3.73,6.51-4.77C10.45,10.79,14,8.71,17.82,7A72.74,72.74,0,0,1,44.17.14c8.4-.46,17.12.13,25.08,3.1A38.14,38.14,0,0,1,80,9.26a64.53,64.53,0,0,0,5.47,4.43A34.9,34.9,0,0,0,90.62,16a17.73,17.73,0,0,0,4.43-.15c3.14-.55,5.62-2.64,8.55-3.67,1.17-.95,2.29-2,3.46-2.94a38.14,38.14,0,0,1,10.72-6c8-3,16.68-3.56,25.08-3.1A72.74,72.74,0,0,1,169.21,7c3.78,1.72,7.37,3.8,11.1,5.61C182.47,13.64,186,14.86,186.82,17.37Zm-2.19,2.27c.24-2-1.22-2.54-2.83-3.35-3-1.49-6.08-2.84-9.11-4.25A89.29,89.29,0,0,0,148,4.3C138.86,3,128.85,3,119.93,5.56A33.93,33.93,0,0,0,107.68,12a37,37,0,0,1-5.23,3.92,17.62,17.62,0,0,1-17.87,0A37,37,0,0,1,79.35,12,33.93,33.93,0,0,0,67.1,5.56C58.18,3,48.17,3,39,4.3A89.29,89.29,0,0,0,14.34,12c-3,1.41-6.12,2.76-9.11,4.25-1.61.81-3.07,1.31-2.83,3.35.18,1.58.59,3.19.91,4.74,3,14.52,11.84,29,25.66,35.26,12.48,5.69,29.08,7.2,40.66-1.33C76,53.65,79.9,46.46,82.23,39.09c1.8-5.7,5.46-13.57,12.87-12.17,5.44,1,8.22,7.49,9.7,12.18,2.33,7.36,6.26,14.55,12.6,19.21,11.58,8.53,28.18,7,40.66,1.33,13.82-6.3,22.64-20.74,25.66-35.26C184,22.83,184.45,21.22,184.63,19.64Z"/><path d="M165.72,20.8c1.68,3.89,1.9,8.08,1.66,12.25a33.1,33.1,0,0,1-2.31,11.44c-5.69,13.08-23.5,18.29-36.46,14.95a27.88,27.88,0,0,1-16.79-12.25c-3.69-5.94-6.56-13.11-6.87-20.14-.64-14.83,14.71-20,28.09-20.18a45.15,45.15,0,0,1,15.09.89C155.46,9.51,162.61,13.61,165.72,20.8Zm-5.78,27.12c4.69-5.39,6.41-13.76,5.43-20.71-1.12-8-6.87-13.13-14.16-15.77a46.72,46.72,0,0,0-22.57-1.83,70.63,70.63,0,0,0-8,1.63c-5.56,1.91-11.47,5.47-12.73,11.46-1.37,6.49,1.3,13.72,4.17,19.44s6.79,10.35,12.63,13.07C136.05,60.49,151.68,57.41,159.94,47.92Z"/><path class="cls-3" d="M165.37,27.21c1,6.95-.74,15.32-5.43,20.71-8.26,9.49-23.89,12.57-35.21,7.29-5.84-2.72-9.79-7.4-12.63-13.07s-5.54-12.95-4.17-19.44c1.26-6,7.17-9.55,12.73-11.46a70.63,70.63,0,0,1,8-1.63,46.72,46.72,0,0,1,22.57,1.83C158.5,14.08,164.25,19.24,165.37,27.21Z"/><path d="M54,6.87c13.38.18,28.73,5.35,28.09,20.18-.31,7-3.18,14.2-6.87,20.14A27.88,27.88,0,0,1,58.42,59.44c-13,3.34-30.77-1.87-36.46-14.95a33.1,33.1,0,0,1-2.31-11.44c-.24-4.17,0-8.36,1.66-12.25,3.11-7.19,10.26-11.29,17.59-13A45.15,45.15,0,0,1,54,6.87ZM74.93,42.14c2.87-5.72,5.54-12.95,4.17-19.44-1.26-6-7.17-9.55-12.73-11.46a70.63,70.63,0,0,0-8-1.63,46.72,46.72,0,0,0-22.57,1.83c-7.29,2.64-13,7.8-14.16,15.77-1,6.95.74,15.32,5.43,20.71C35.35,57.41,51,60.49,62.3,55.21,68.14,52.49,72.09,47.81,74.93,42.14Z"/><path class="cls-3" d="M79.1,22.7c1.37,6.49-1.3,13.72-4.17,19.44S68.14,52.49,62.3,55.21C51,60.49,35.35,57.41,27.09,47.92c-4.69-5.39-6.41-13.76-5.43-20.71,1.12-8,6.87-13.13,14.16-15.77A46.72,46.72,0,0,1,58.39,9.61a70.63,70.63,0,0,1,8,1.63C71.93,13.15,77.84,16.71,79.1,22.7Z"/><path class="cls-4" d="M66.7,15.29a6.78,6.78,0,0,0,2.54-1.09A2.15,2.15,0,0,0,70,11.73a3.17,3.17,0,0,0-2.39-1.32C60.68,9,53.71,7.6,46.67,7.83s-14.24,2.23-19.49,6.91A23,23,0,0,0,19.62,30c-.32,4.1.31,10.7,3.68,13.59,3.75,3.22,6.44-3.08,8.46-5.51A71.14,71.14,0,0,1,52.67,21,68.9,68.9,0,0,1,66.7,15.29Z"/><path class="cls-4" d="M150.83,15c1.08-.37,2.31-.84,2.72-1.91a2.63,2.63,0,0,0-1.07-2.88,7.27,7.27,0,0,0-3.09-1.07A87.51,87.51,0,0,0,132,7.83a40.48,40.48,0,0,0-13.57,2.27,19.45,19.45,0,0,0-10.36,8.69c-2.14,4.08-2.32,9-1.41,13.47a40.73,40.73,0,0,0,2,6.73c.46,1.21,1.47,5.33,3,5.54,1.29.17,3-3.29,3.77-4.25,1.25-1.6,2.56-3.16,3.94-4.65A77,77,0,0,1,138.6,20.47,74,74,0,0,1,150.83,15Z"/><path class="cls-5" d="M182.92,24a46,46,0,0,0-2.11,5.64C180,31.8,179,33.9,178,36a94.44,94.44,0,0,1-6.33,10.53,29.68,29.68,0,0,1-16,12.19c-12.46,3.93-26.8,3.05-38.42-3.06-.93-.9-2-1.69-2.95-2.7A29.46,29.46,0,0,1,109,44.79c-2.46-5.32-3.56-11.61-6.9-16.46a10.51,10.51,0,0,0-12.29-4.16c-5.37,2-6.69,8.88-8.6,13.59-2,5-3.32,10.41-7.14,14.45-4.16,4.4-10.73,7-16.51,8.35-11.41,2.67-24.22.4-33.34-7.19A47.48,47.48,0,0,1,12,37,101.77,101.77,0,0,1,7.74,26.72c-1-2.95-2.91-6.57-2.81-9.73a1.09,1.09,0,0,0-2-.55c-1.15,2.34-.78,4.6-.21,7a63.57,63.57,0,0,0,3.19,9.88A66.93,66.93,0,0,0,14.8,49.69,41.23,41.23,0,0,0,44.51,65.63c11.28.87,24.4-3,31.95-11.85,3.42-4,4.73-8.87,6.62-13.66,2-5.09,4.71-13.72,11.65-12.6s7.71,10.66,10,15.93c1.46,3.39,2.91,6.76,5.27,9.64,2.08,2.54,4.72,4.26,7,6.57a1.35,1.35,0,0,0,1.82,0c8.28,5.41,18.8,6.08,28.78,4.85a42.94,42.94,0,0,0,16.15-4.9c5.4-3.07,9.15-7.66,12.43-12.85a81.42,81.42,0,0,0,5.75-10.89c1.47-3.38,3.49-7.45,3.61-11.18A1.39,1.39,0,0,0,182.92,24Z"/><path class="cls-5" d="M159.07,9.34a37.7,37.7,0,0,0-17.82-4.72,73.48,73.48,0,0,0-17.14,1.25c-6,1.29-12.69,4.26-16.53,9.16-.38.48.11,1.36.72.93a39,39,0,0,1,8.77-5,47.49,47.49,0,0,1,9.57-2.29,63.49,63.49,0,0,1,19.89-.06c6.78,1.21,13.44,4.56,17,10.59,3.89,6.59,3.11,13.79,2.52,21.09-.14,1.73,2.21,1.71,2.76.38C173.27,30,169.51,15.12,159.07,9.34Z"/><path class="cls-5" d="M70.71,9.24c-2.23-1.66-5-2.52-7.57-3.44A45.87,45.87,0,0,0,52.93,3.51c-6.4-.74-13.3-.42-19.36,1.93C23,9.56,14.84,19.74,15.43,31.43a27,27,0,0,0,2.14,9.32c1.05,2.44,2.42,5.36,5.07,6.34.88.32,1.64-.64,1.44-1.45-.68-2.82-2.6-5.27-3.38-8.13a25.42,25.42,0,0,1-1.05-8.57,22,22,0,0,1,8.83-15.78c5.7-4.5,12.87-6,20-6a68,68,0,0,1,11,.79c1.91.32,3.79.77,5.7,1.1a16.69,16.69,0,0,1,5,1.18A.59.59,0,0,0,70.71,9.24Z"/><path class="cls-6" d="M75,27.69a3.16,3.16,0,0,0-4.12-.83c-4.8,3.51-8.48,8-12.79,12.07a38,38,0,0,1-6.73,5.25c-2.54,1.46-5.22,2.63-7.72,4.16-3,1.83-.38,6.1,2.71,4.63,2.66-1.27,5.48-2.16,8.18-3.37a34,34,0,0,0,7.59-4.91A81.38,81.38,0,0,0,74.74,31.88,3.23,3.23,0,0,0,75,27.69Z"/><path class="cls-6" d="M158.5,27.59C154.2,32.18,150.11,37,145,40.75a55.31,55.31,0,0,1-7.14,4.35c-2.49,1.29-5.58,2.55-8.33,1.45-1.47-.6-2.84,1.73-1.58,2.71,5.57,4.33,13.27,1.07,18.67-2,6.7-3.77,13-9.26,16.38-16.22C164.39,28.29,160.86,25.09,158.5,27.59Z"/><path class="cls-6" d="M37.92,45.76a1.13,1.13,0,0,0-.12-.21,3.36,3.36,0,0,0-1-1l-.69-.3a2.22,2.22,0,0,0-1.17-.05,1.43,1.43,0,0,0-.73.2,2.69,2.69,0,0,0-1.17.9,2.15,2.15,0,0,0-.52,1,1.18,1.18,0,0,0-.07.45,2.26,2.26,0,0,0,.05,1.18,4.22,4.22,0,0,0,.35.82A3.65,3.65,0,0,0,34,49.94a2.16,2.16,0,0,0,1.09.35,2.22,2.22,0,0,0,1.17,0l.7-.3a2.19,2.19,0,0,0,.82-.75,2.77,2.77,0,0,0,.62-1.77A3.15,3.15,0,0,0,37.92,45.76Z"/><path class="cls-6" d="M124.15,42.3l-.05,0a4.07,4.07,0,0,0-1.49-.87,2.58,2.58,0,0,0-1.35-.06,1.73,1.73,0,0,0-.86.23,1.7,1.7,0,0,0-.74.44,1.67,1.67,0,0,0-.61.6,1.72,1.72,0,0,0-.43.75,2.56,2.56,0,0,0-.3,1.31l.12.9.35.8.53.69.68.53.81.34a2.58,2.58,0,0,0,1.35.06,1.69,1.69,0,0,0,.85-.23,2.53,2.53,0,0,0,1.09-.7l.05,0a2.57,2.57,0,0,0,.69-1.07,2.48,2.48,0,0,0,.28-1.28A3.31,3.31,0,0,0,124.15,42.3Z"/></g></g></g></svg>