<svg xmlns="http://www.w3.org/2000/svg" viewBox="0 0 160.65 71.86"><defs><style>.cls-1{isolation:isolate;}.cls-2{fill:#f05161;}.cls-3,.cls-4{fill:#2d3c44;}.cls-4{opacity:0.45;}.cls-4,.cls-5{mix-blend-mode:multiply;}.cls-5{fill:#89534d;opacity:0.3;}.cls-6{fill:#fff;opacity:0.15;}</style></defs><g class="cls-1"><g id="Layer_2" data-name="Layer 2"><g id="OBJECTS"><path class="cls-2" d="M152.77,9.65c8.31,9,5.65,22-.36,31.45-6.26,9.84-16,18.21-25.8,24.43-2.41,1.53-4.82,2.82-7.74,2.29a25,25,0,0,1-7.48-2.9A53.11,53.11,0,0,1,97.75,53.76,38.34,38.34,0,0,1,88.6,37.15c-.63-2.43-1-5-2.93-6.75A8.34,8.34,0,0,0,75,30.4c-1.94,1.76-2.3,4.32-2.93,6.75a38.25,38.25,0,0,1-9.16,16.61A52.89,52.89,0,0,1,49.26,64.92a25,25,0,0,1-7.48,2.9c-2.92.53-5.33-.76-7.74-2.29C24.26,59.31,14.5,50.94,8.24,41.1c-6-9.44-8.67-22.48-.36-31.45A17.8,17.8,0,0,1,23,4.05c6,.58,10.8,3.65,15.78,6.72a1.69,1.69,0,0,0,2-.26C46.45,4.78,55.48.65,63.13,4.88a20.31,20.31,0,0,1,7.76,8.23,23.44,23.44,0,0,1,2.39,5.25c.48,2,0,3.34,2,4.71a5.9,5.9,0,0,0,4.24.82c1.5-.21,3.15.1,4.63-.51,3.64-1.49,3.63-6.61,5.29-9.78a20.75,20.75,0,0,1,8.11-8.72c7.65-4.23,16.68-.1,22.3,5.63a1.69,1.69,0,0,0,2,.26c5-3.07,9.8-6.14,15.78-6.72A17.8,17.8,0,0,1,152.77,9.65Zm-1,18.12A18.13,18.13,0,0,0,141.8,11.2C135,8,127.43,10.37,121.71,14.6h0c-1.55.12-3.34-2.28-4.63-3.17a23.67,23.67,0,0,0-5.86-2.94,14.58,14.58,0,0,0-9.41-.08C96.47,10.3,93,15.29,91.55,20.56c-1.77,6.45-.61,13,2.14,19,3.12,6.79,8.36,12.11,14,16.89,4.64,4,11.52,9.34,18,6.83,3.36-1.3,5.87-4.15,8.18-6.79,2.51-2.87,5.14-5.63,7.66-8.49C146.47,42.44,151.55,35.52,151.75,27.77ZM67,39.58c2.75-6,3.91-12.57,2.14-19C67.66,15.29,64.18,10.3,58.87,8.41a14.58,14.58,0,0,0-9.41.08,23.5,23.5,0,0,0-5.86,2.94c-1.29.89-3.08,3.29-4.63,3.17h0C33.22,10.37,25.63,8,18.85,11.2a18.11,18.11,0,0,0-10,16.57C9.09,35.52,14.18,42.44,19.11,48c2.52,2.86,5.15,5.62,7.65,8.49C29.08,59.15,31.59,62,35,63.3c6.51,2.51,13.39-2.88,18-6.83C58.6,51.69,63.84,46.37,67,39.58Z"/><path d="M149.36,3.35c10.49,6.2,13.4,18.64,9.85,29.75-3.94,12.3-13.8,22.71-23.82,30.46-4,3.11-8.8,7.75-14.1,8.25-5.61.53-11.83-3.54-16.07-6.77a67.86,67.86,0,0,1-15-15.92,33,33,0,0,1-4.32-10c-.91-3.35-1.47-8.22-5.6-8.78-4.12.56-4.68,5.43-5.59,8.78a33,33,0,0,1-4.32,10A67.86,67.86,0,0,1,55.43,65c-4.24,3.23-10.46,7.3-16.07,6.77-5.3-.5-10.07-5.14-14.1-8.25C15.24,55.81,5.37,45.4,1.44,33.1-2.11,22,.8,9.55,11.29,3.35c8.77-5.18,21-2.59,28.51,3.88C43.49,4.71,47,2,51.35.7A16.72,16.72,0,0,1,64.07,2c6.22,3.37,10.76,11,11.3,18.15a2.19,2.19,0,0,0,1.36,1.33c1.2.33,2.41,0,3.59.25,1.19-.21,2.4.08,3.6-.25a2.19,2.19,0,0,0,1.36-1.33C85.82,13,90.35,5.36,96.58,2A16.72,16.72,0,0,1,109.3.7c4.39,1.27,7.86,4,11.55,6.53C128.41.76,140.59-1.83,149.36,3.35Zm3,37.75c6-9.44,8.67-22.48.36-31.45a17.8,17.8,0,0,0-15.15-5.6c-6,.58-10.8,3.65-15.78,6.72a1.69,1.69,0,0,1-2-.26C114.2,4.78,105.17.65,97.52,4.88a20.75,20.75,0,0,0-8.11,8.72c-1.66,3.17-1.65,8.29-5.29,9.78-1.48.61-3.13.3-4.63.51a5.9,5.9,0,0,1-4.24-.82c-2-1.37-1.49-2.75-2-4.71a23.44,23.44,0,0,0-2.39-5.25,20.31,20.31,0,0,0-7.76-8.23c-7.65-4.23-16.68-.1-22.3,5.63a1.69,1.69,0,0,1-2,.26C33.83,7.7,29,4.63,23,4.05A17.8,17.8,0,0,0,7.88,9.65c-8.31,9-5.65,22,.36,31.45,6.26,9.84,16,18.21,25.8,24.43,2.41,1.53,4.82,2.82,7.74,2.29a25,25,0,0,0,7.48-2.9A52.89,52.89,0,0,0,62.89,53.76a38.25,38.25,0,0,0,9.16-16.61c.63-2.43,1-5,2.93-6.75a8.34,8.34,0,0,1,10.69,0c1.94,1.76,2.3,4.32,2.93,6.75a38.34,38.34,0,0,0,9.15,16.61,53.11,53.11,0,0,0,13.64,11.16,25,25,0,0,0,7.48,2.9c2.92.53,5.33-.76,7.74-2.29C136.39,59.31,146.15,50.94,152.41,41.1Z"/><path d="M141.8,11.2a18.13,18.13,0,0,1,9.95,16.57c-.2,7.75-5.28,14.67-10.21,20.25-2.52,2.86-5.15,5.62-7.66,8.49-2.31,2.64-4.82,5.49-8.18,6.79-6.51,2.51-13.39-2.88-18-6.83-5.62-4.78-10.86-10.1-14-16.89-2.75-6-3.91-12.57-2.14-19C93,15.29,96.47,10.3,101.78,8.41a14.58,14.58,0,0,1,9.41.08,23.67,23.67,0,0,1,5.86,2.94c1.29.89,3.08,3.29,4.63,3.17h0C127.43,10.37,135,8,141.8,11.2Zm5.13,25.18c3.61-6.82,3.42-14.88-2.73-20.18a15.62,15.62,0,0,0-11.49-3.61c-.68.2-1.35.42-2,.63-2.44.83-4.46,2.4-6.8,3.43-2,.89-3.6,1-5.37-.46-2.71-2.19-5.27-4.17-8.72-5.1C98.24,8,92.27,21.3,93.75,30.87c1,6.69,4.7,12.75,9.24,17.65,4.08,4.39,9.18,9.29,14.81,11.56,6.89,2.77,11.48-3.1,15.82-7.55C138.54,47.46,143.59,42.72,146.93,36.38Z"/><path class="cls-3" d="M144.2,16.2c6.15,5.3,6.34,13.36,2.73,20.18-3.34,6.34-8.39,11.08-13.31,16.15-4.34,4.45-8.93,10.32-15.82,7.55-5.63-2.27-10.73-7.17-14.81-11.56-4.54-4.9-8.21-11-9.24-17.65C92.27,21.3,98.24,8,109.82,11.09c3.45.93,6,2.91,8.72,5.1,1.77,1.43,3.34,1.35,5.37.46,2.34-1,4.36-2.6,6.8-3.43.65-.21,1.32-.43,2-.63A15.62,15.62,0,0,1,144.2,16.2Z"/><path d="M69.1,20.56c1.77,6.45.61,13-2.14,19-3.12,6.79-8.36,12.11-14,16.89-4.64,4-11.52,9.34-18,6.83-3.36-1.3-5.87-4.15-8.19-6.79-2.5-2.87-5.13-5.63-7.65-8.49-4.93-5.58-10-12.5-10.21-20.25a18.11,18.11,0,0,1,10-16.57c6.78-3.24,14.37-.83,20.08,3.4h0c1.55.12,3.34-2.28,4.63-3.17a23.5,23.5,0,0,1,5.86-2.94,14.58,14.58,0,0,1,9.41-.08C64.18,10.3,67.66,15.29,69.1,20.56ZM66.9,30.87C68.38,21.3,62.41,8,50.83,11.09c-3.45.93-6,2.91-8.72,5.1-1.77,1.43-3.34,1.35-5.37.46-2.34-1-4.36-2.6-6.8-3.43-.65-.21-1.32-.43-2-.63A15.61,15.61,0,0,0,16.45,16.2c-6.15,5.3-6.34,13.36-2.73,20.18C17.06,42.72,22.11,47.46,27,52.53,31.37,57,36,62.85,42.85,60.08c5.63-2.27,10.73-7.17,14.81-11.56C62.2,43.62,65.87,37.56,66.9,30.87Z"/><path class="cls-3" d="M50.83,11.09C62.41,8,68.38,21.3,66.9,30.87c-1,6.69-4.7,12.75-9.24,17.65-4.08,4.39-9.18,9.29-14.81,11.56C36,62.85,31.37,57,27,52.53c-4.92-5.07-10-9.81-13.31-16.15C10.11,29.56,10.3,21.5,16.45,16.2a15.61,15.61,0,0,1,11.48-3.61c.69.2,1.36.42,2,.63,2.44.83,4.46,2.4,6.8,3.43,2,.89,3.6,1,5.37-.46C44.82,14,47.38,12,50.83,11.09Z"/><path class="cls-4" d="M58.37,18.32c1.64-1.12,3.46-2.51,3.54-4.48.1-2.21-2.08-3.85-4.18-4.55a14.43,14.43,0,0,0-12.81,2c-2.29,1.65-4.34,4.09-7.16,4.21-2.18.1-4.12-1.25-6.11-2.14a15.47,15.47,0,0,0-15.33,1.76,15.5,15.5,0,0,0-5.87,14.28c.63,4.32,3.05,8,5.53,11.51,1.61,2.26,5.09,9.66,8.58,7.33,1.83-1.23,3.38-3.69,4.92-5.29s3.37-3.47,5.11-5.15q5.27-5.1,10.95-9.78C49.67,24.57,54,21.34,58.37,18.32Z"/><path class="cls-4" d="M141.12,18.21c1.28-.75,2.72-1.73,2.8-3.2.1-1.92-2.1-3.06-4-3.46a23,23,0,0,0-18.58,4.28c-4.86-3.14-10.12-6.4-15.91-6.22a14.57,14.57,0,0,0-10.85,5.48C90.78,20,90.5,26.9,92.36,32.81a43.2,43.2,0,0,0,6.17,11.83c1,1.44,2.44,3.4,4.42,3.4s3.49-2.25,4.77-3.57a163.25,163.25,0,0,1,20.59-17.83Q134.52,22.13,141.12,18.21Z"/><path class="cls-5" d="M35.92,65.76c-1.32-3-5-5.26-7.43-7.31s-4.9-4.13-7.28-6.27C16.56,48,12,43.56,8.74,38.15A31.29,31.29,0,0,1,4.49,20a15.88,15.88,0,0,1,3.16-8.23c1.89-2.64,4.57-4.46,6.56-7a.63.63,0,0,0-.61-1.05C10.69,4.34,7.93,7,6,9.13a18.88,18.88,0,0,0-4.55,8.34C.1,23.77,1.35,30.88,4,36.71,6.76,43,11.5,48.15,16.46,52.77c2.65,2.47,5.4,4.82,8.18,7.15,1.5,1.27,3,2.53,4.49,3.82s3,3.11,4.89,3.93A1.41,1.41,0,0,0,35.92,65.76Z"/><path class="cls-5" d="M36.83,10.54a30.17,30.17,0,0,0-7.48-2.88,15.85,15.85,0,0,0-6.82-.11c-3.17.56-8.64,2.34-8.44,6.38a.46.46,0,0,0,.77.32c2.58-2,6.15-3,9.37-3.37a12.34,12.34,0,0,1,5.79.8c1.91.69,4,1.76,6.09,1.52A1.44,1.44,0,0,0,36.83,10.54Z"/><path class="cls-5" d="M70.62,18.15a14.35,14.35,0,0,0-9-11.56,15.31,15.31,0,0,0-6.89-1.36C53,5.34,50.49,6,50,7.83a.34.34,0,0,0,.33.43c1.76.15,3.54-.7,5.39-.55A14.27,14.27,0,0,1,61.9,9.94c4.6,2.86,5.6,7.18,5.92,12.3.36,5.54.34,11-2.14,16.1-2.16,4.4-5.74,7.93-7.77,12.35A1.34,1.34,0,0,0,60,52.31a38.12,38.12,0,0,0,9.9-15C72.05,31.31,71.62,24.33,70.62,18.15Z"/><path class="cls-5" d="M120.33,66.53a76.59,76.59,0,0,1-8.09-3,40,40,0,0,1-7.3-4.59c-4.8-3.77-7.86-8.87-10.81-14.13C91.42,40,91,34.18,86.88,30.15c-3.19-3.09-7.52-3.39-10.73-.21a.45.45,0,0,0,.55.71c6.24-3.47,10.06,2.82,11.75,8.07a59.55,59.55,0,0,0,6.9,14.47c5.17,8,14.81,15.5,24.57,16.35C121.74,69.7,121.86,67.08,120.33,66.53Z"/><path class="cls-5" d="M149.32,12.21c-3.65-3.58-8.78-5-13.78-4.9-4,.05-10.52.9-13.71,4.22-1.48-1.69-3.94-2.72-5.91-3.47a29.65,29.65,0,0,0-10.56-2c-3.8.06-13.69,2.18-12.62,7.77A.71.71,0,0,0,94,14c1.89-4.36,9.71-5.47,13.68-4.93a32.65,32.65,0,0,1,7.42,1.85c2,.76,3.51,2.25,5.31,3.18a.84.84,0,0,0,1.11.74c.19-.06.37-.14.55-.21a.81.81,0,0,0,.32-.11c2.19-.87,4.2-2.12,6.51-2.77a23.94,23.94,0,0,1,8.83-.82c5.62.52,10.53,3.69,12.14,9.28,1.67,5.8-.11,12.21-2.8,17.42a47,47,0,0,1-5.35,8c-2.11,2.59-4.57,5-6.3,7.91-.73,1.21.77,2.83,2,2C142.21,52.33,146.13,47,149,42.1a34.7,34.7,0,0,0,5.19-16.4C154.37,20.79,152.89,15.71,149.32,12.21Z"/><path class="cls-6" d="M61.89,21.49c-.35-1.83-3.55-1.93-3.81,0-1.5,11.13-10.73,18-17.3,26.15-1.71,2.13.56,6.11,3.21,4.17A56.7,56.7,0,0,0,57,38.57C60.55,33.54,63.09,27.74,61.89,21.49Z"/><path class="cls-6" d="M140.14,22.34c-2.43,4-3.89,8.37-6.71,12.15A79.46,79.46,0,0,1,124,44.85c-2.21,2.07.66,5.85,3.24,4.21a34.74,34.74,0,0,0,10.93-10.92,31.87,31.87,0,0,0,3.24-6.54c.87-2.59,1-5.38,1.79-8C143.73,21.8,141.1,20.76,140.14,22.34Z"/><path class="cls-6" d="M119.15,51c-2.54,0-2.55,4,0,4S121.7,51,119.15,51Z"/><path class="cls-6" d="M38.35,50.55a2.32,2.32,0,0,0-1-.61,2.37,2.37,0,0,0-1.24,0,2.54,2.54,0,0,0-1.47,1.16,2.36,2.36,0,0,0,1.72,3.51,2.3,2.3,0,0,0,2-.65,2.5,2.5,0,0,0,0-3.41Z"/></g></g></g></svg>