<svg xmlns="http://www.w3.org/2000/svg" viewBox="0 0 178.64 61.38"><defs><style>.cls-1{isolation:isolate;}.cls-2{fill:#7cc366;}.cls-3,.cls-4{fill:#2d3c44;}.cls-4{opacity:0.45;}.cls-4,.cls-5{mix-blend-mode:multiply;}.cls-5{fill:#89534d;opacity:0.3;}.cls-6{fill:#fff;opacity:0.15;}</style></defs><g class="cls-1"><g id="Layer_2" data-name="Layer 2"><g id="OBJECTS"><path class="cls-2" d="M176.61,14.73c0,3.7,0,7.45-.36,11.14-.63,7.08-1.78,16-6.72,21.53-4.58,5.11-12,7.29-18.5,8.65-7.41,1.55-15,1.69-22.57,1.61-6.82-.07-14-.89-18.85-6.27a21.84,21.84,0,0,1-3.33-5.15c-2.61-5.37-3.73-11.33-6.43-16.66C97.39,24.73,91.71,18.4,86,21.89,75.15,28.43,76.88,42.62,69,51.39c-4.81,5.38-12,6.2-18.85,6.27-7.54.08-15.16-.06-22.57-1.61-6.49-1.36-13.92-3.54-18.5-8.65C4.17,41.89,3,33,2.39,25.87,2.07,22.18,2,18.43,2,14.73c0-1.87.15-4.19,1.16-5.84.82-1.34,2.23-1.65,3.66-2a156.61,156.61,0,0,1,24.79-3,242.92,242.92,0,0,1,28.3-.31c4.81.31,9.56,1.1,14.37,1.41,5.06.32,10.13.21,15.19.16s9.89.15,14.83-.16,9.57-1.1,14.37-1.41a242.92,242.92,0,0,1,28.3.31,156.61,156.61,0,0,1,24.79,3c1.43.32,2.84.63,3.66,2C176.46,10.54,176.6,12.86,176.61,14.73Zm-9.54,24.85c2.49-6.07,2.88-13.78,1.74-20.18a17.58,17.58,0,0,0-3.23-8.1c-1.83-2.2-4.53-3.18-7.27-3.72a113.66,113.66,0,0,0-32.89-1.53c-1.63,0-3.26,0-4.88,0-3.79,0-7.61.25-11.12,1.82a11.75,11.75,0,0,0-6.67,7.29c-1.09,3.58-.21,7.38.48,10.94,1.38,7.26,3.26,14.29,8.18,20s12.51,6.4,19.72,6.84c7.89.48,15.9-.07,23.31-3C159.75,47.87,164.79,45.12,167.07,39.58ZM75.41,26.13c.69-3.56,1.57-7.36.48-10.94A11.75,11.75,0,0,0,69.22,7.9C65.71,6.33,61.89,6.13,58.1,6.08c-1.62,0-3.25,0-4.88,0A113.67,113.67,0,0,0,20.33,7.58c-2.74.54-5.44,1.52-7.27,3.72a17.58,17.58,0,0,0-3.23,8.1c-1.14,6.4-.75,14.11,1.74,20.18C13.85,45.12,18.89,47.87,24.2,50c7.41,2.93,15.42,3.48,23.31,3,7.21-.44,14.72-1,19.72-6.84S74,33.39,75.41,26.13Z"/><path d="M177.85,7.88c1.37,3.39.55,7.92.52,11.49-.08,8-.64,16.64-3.54,24.23-2.32,6.09-7.26,10.12-13.14,12.6a69.28,69.28,0,0,1-24.51,5c-7.1.24-15,.73-21.75-1.71-7.61-2.73-11.63-9.37-14.16-16.68-1.4-4.06-2.21-8.39-4-12.29a15.78,15.78,0,0,0-4.13-5.66c-1.36-1.12-2.27-1.9-4-1.61a7.12,7.12,0,0,0-3.59,1.61,15.87,15.87,0,0,0-4.13,5.66c-1.8,3.9-2.61,8.23-4,12.29-2.53,7.31-6.55,13.95-14.16,16.68-6.8,2.44-14.65,1.95-21.75,1.71A69.28,69.28,0,0,1,17,56.2C11.07,53.72,6.13,49.69,3.81,43.6.92,36,.35,27.4.27,19.37c0-3.57-.85-8.1.53-11.49,1-2.4,3.18-3.34,5.51-4C14.92,1.24,24,.6,32.93.22A167.72,167.72,0,0,1,60.83,1c4.66.57,9.25,1.53,13.93,1.94C79.72,3.42,85,4.25,90,4c4.58-.24,9.29-.6,13.88-1S113.15,1.61,117.81,1a167.72,167.72,0,0,1,27.9-.82c8.93.38,18,1,26.62,3.62C174.66,4.54,176.87,5.48,177.85,7.88Zm-1.6,18c.32-3.69.38-7.44.36-11.14,0-1.87-.15-4.19-1.16-5.84-.82-1.34-2.23-1.65-3.66-2a156.61,156.61,0,0,0-24.79-3,242.92,242.92,0,0,0-28.3-.31c-4.8.31-9.56,1.1-14.37,1.41s-9.88.11-14.83.16S79.37,5.31,74.31,5c-4.81-.31-9.56-1.1-14.37-1.41a242.92,242.92,0,0,0-28.3.31,156.61,156.61,0,0,0-24.79,3c-1.43.32-2.84.63-3.66,2-1,1.65-1.15,4-1.16,5.84,0,3.7,0,7.45.36,11.14C3,33,4.17,41.89,9.11,47.4c4.58,5.11,12,7.29,18.5,8.65,7.41,1.55,15,1.69,22.57,1.61,6.82-.07,14-.89,18.85-6.27,7.85-8.77,6.12-23,16.92-29.5,5.76-3.49,11.44,2.84,13.9,7.69,2.7,5.33,3.82,11.29,6.43,16.66a21.84,21.84,0,0,0,3.33,5.15c4.81,5.38,12,6.2,18.85,6.27,7.54.08,15.16-.06,22.57-1.61,6.49-1.36,13.92-3.54,18.5-8.65C174.47,41.89,175.62,33,176.25,25.87Z"/><path d="M168.81,19.4c1.14,6.4.75,14.11-1.74,20.18-2.28,5.54-7.32,8.29-12.63,10.39C147,52.9,139,53.45,131.13,53c-7.21-.44-14.72-1-19.72-6.84s-6.8-12.74-8.18-20c-.69-3.56-1.57-7.36-.48-10.94a11.75,11.75,0,0,1,6.67-7.29c3.51-1.57,7.33-1.77,11.12-1.82,1.62,0,3.25,0,4.88,0a113.66,113.66,0,0,1,32.89,1.53c2.74.54,5.44,1.52,7.27,3.72A17.58,17.58,0,0,1,168.81,19.4ZM164,41c3.16-4.82,3.69-12.18,3.41-17.77-.15-2.94-.65-6.35-2.31-8.86s-4.67-3.14-7.35-3.66a162.3,162.3,0,0,0-25.66-3.06c-5.74.39-11.6-.06-17.24,1.06-2.82.56-5.74,1.66-7.66,3.9-2.32,2.7-2.39,6.44-1.9,9.78.94,6.39,2.23,12.9,5.71,18.45a18.92,18.92,0,0,0,6.17,6.53c3.23,1.85,7.4,2.15,11,2.5,7,.67,14.2.83,21.08-.71C154.64,48,160.9,45.81,164,41Z"/><path class="cls-3" d="M167.44,23.23c.28,5.59-.25,13-3.41,17.77s-9.39,7-14.73,8.16c-6.88,1.54-14.1,1.38-21.08.71-3.62-.35-7.79-.65-11-2.5A18.92,18.92,0,0,1,111,40.84c-3.48-5.55-4.77-12.06-5.71-18.45-.49-3.34-.42-7.08,1.9-9.78,1.92-2.24,4.84-3.34,7.66-3.9,5.64-1.12,11.5-.67,17.24-1.06a162.3,162.3,0,0,1,25.66,3.06c2.68.52,5.73,1.22,7.35,3.66S167.29,20.29,167.44,23.23Z"/><path d="M75.89,15.19c1.09,3.58.21,7.38-.48,10.94-1.38,7.26-3.26,14.29-8.18,20S54.72,52.53,47.51,53c-7.89.48-15.9-.07-23.31-3-5.31-2.1-10.35-4.85-12.63-10.39C9.08,33.51,8.69,25.8,9.83,19.4a17.58,17.58,0,0,1,3.23-8.1c1.83-2.2,4.53-3.18,7.27-3.72A113.67,113.67,0,0,1,53.22,6.05c1.63,0,3.26,0,4.88,0,3.79,0,7.61.25,11.12,1.82A11.75,11.75,0,0,1,75.89,15.19Zm-2.57,7.2c.49-3.34.42-7.08-1.9-9.78-1.92-2.24-4.84-3.34-7.66-3.9C58.12,7.59,52.26,8,46.52,7.65a162.3,162.3,0,0,0-25.66,3.06c-2.68.52-5.73,1.22-7.35,3.66s-2.16,5.92-2.31,8.86c-.28,5.59.25,13,3.41,17.77S24,48,29.34,49.16c6.88,1.54,14.1,1.38,21.08.71,3.63-.35,7.79-.65,11-2.5a18.92,18.92,0,0,0,6.17-6.53C71.09,35.29,72.38,28.78,73.32,22.39Z"/><path class="cls-3" d="M71.42,12.61c2.32,2.7,2.39,6.44,1.9,9.78-.94,6.39-2.23,12.9-5.71,18.45a18.92,18.92,0,0,1-6.17,6.53c-3.23,1.85-7.39,2.15-11,2.5-7,.67-14.2.83-21.08-.71C24,48,17.74,45.81,14.61,41S10.92,28.82,11.2,23.23c.15-2.94.65-6.35,2.31-8.86s4.67-3.14,7.35-3.66A162.3,162.3,0,0,1,46.52,7.65c5.74.39,11.6-.06,17.24,1.06C66.58,9.27,69.5,10.37,71.42,12.61Z"/><path class="cls-4" d="M67.74,14.35c1.38-.38,3-.92,3.44-2.28a3,3,0,0,0-1.39-3.25,8.25,8.25,0,0,0-3.63-1A140.33,140.33,0,0,0,21.23,9.43c-3.24.65-6.7,1.55-8.8,4.1S10.07,19.94,10,23.39a55.93,55.93,0,0,0,.55,11c.54,2.91,2.71,11.53,7,8.47,3.77-2.69,7-6.28,10.75-9.07A119.93,119.93,0,0,1,52.8,19.63,118.29,118.29,0,0,1,67.74,14.35Z"/><path class="cls-4" d="M159.53,13.73c1.08-.52,2.3-1.25,2.38-2.44C162,9.7,160,8.89,158.47,8.6a130.72,130.72,0,0,0-44.25-.73c-3,.46-6.16,1.14-8.25,3.31-2.32,2.4-2.74,6.06-2.59,9.39a38.85,38.85,0,0,0,3.7,14.89c2.06,4.37,4.49,7.24,9,4,8.81-6.18,17.83-12,27.22-17.29Q151.31,17.72,159.53,13.73Z"/><path class="cls-5" d="M74.78,36.54c-3,5-5.33,10.81-10.4,14.2-3.28,2.18-6.84,2.58-10.68,3a79.1,79.1,0,0,1-12.11.57A89.83,89.83,0,0,1,19,50.15c-3.51-1.11-6.59-2.59-8.52-5.88-1.7-2.9-2.53-6.3-3.38-9.52a72,72,0,0,1-2.23-13.6c-.28-4.12-.77-8.57-.1-12.67.13-.8-1-1.44-1.42-.59-1.84,3.52-2.1,7.11-2.07,11A67.6,67.6,0,0,0,2.67,32.37C4.21,39.69,6.11,48.5,13.45,52.11s16.19,5.11,24.3,5.78a70.7,70.7,0,0,0,13.8,0c4.29-.48,8.61-.57,12.59-2.44C71,52.16,75,44.35,76.2,37.14A.78.78,0,0,0,74.78,36.54Z"/><path class="cls-5" d="M167.82,46.53c-3.35,1.47-6.24,3.52-9.78,4.65a68.43,68.43,0,0,1-10.41,2.24c-8.09,1.26-16.47,2.87-24.65,1.51-3.74-.62-7.49-1.82-10.37-4.37a24.16,24.16,0,0,1-5.61-8c-2.83-6.08-3.65-13.08-8-18.37-3.36-4-11.41-6.8-14.39-.78-.15.31.26.69.51.39,1.93-2.29,6.2-1.46,8.49-.1,2.87,1.71,4.37,5.18,5.46,8.19,2.28,6.28,3.84,12.89,7.94,18.32,9.67,12.8,28.08,9.27,41.75,7.22a62.76,62.76,0,0,0,11.73-2.62c3.44-1.22,7.43-3,9.25-6.36A1.39,1.39,0,0,0,167.82,46.53Z"/><path class="cls-5" d="M168.54,13.45c-.91-5.4-6.14-7.85-10.94-9.16-6.15-1.68-12.86-1.68-19.18-2a118.15,118.15,0,0,0-13,.25A65.47,65.47,0,0,0,113.29,4c-3.12.79-6.7,1.81-9,4.16a10.36,10.36,0,0,0-2.92,8.91,1.3,1.3,0,0,0,2.35.31c1.63-2.77,1.6-5.95,4.73-7.67a28.1,28.1,0,0,1,8.73-2.64,106.69,106.69,0,0,1,22.16-.94A128.84,128.84,0,0,1,155.25,7.5c4.5.8,9.24,2.52,11.77,6.59A.84.84,0,0,0,168.54,13.45Z"/><path class="cls-5" d="M77.78,13.8a36.41,36.41,0,0,0-2.84-4,16.59,16.59,0,0,0-4.13-2.89A31.61,31.61,0,0,0,60.56,3.35c-7.2-1.12-14.85-.67-22.09-.21s-14.58,1.3-21.31,4c-5,2-10.37,5.62-9.76,11.63a1.2,1.2,0,0,0,2.34.32c1.7-5.31,6.09-7.65,11.11-9.24a73.56,73.56,0,0,1,19.27-3c6.21-.26,12.67-.54,18.85.22a33.72,33.72,0,0,1,9.29,2.7c3.08,1.34,5.16,3.3,7.53,5.58C76.79,16.29,78.64,15,77.78,13.8Z"/><path class="cls-6" d="M69.26,16.32c-1.32-2.08-4.56-.22-3.32,1.94,2.57,4.49-1.58,11.36-4.52,14.75a19.54,19.54,0,0,1-6.8,5.41c-2.68,1.16-5.64.65-8.31,1.68a2.75,2.75,0,0,0-.65,4.95c3.44,2.41,8.3,1.08,11.78-.61a22.46,22.46,0,0,0,8.67-8.25C69.45,31.05,72.91,22.07,69.26,16.32Z"/><path class="cls-6" d="M36.59,42.41l0,0h0a2.44,2.44,0,0,0-4.1,2.33,3.05,3.05,0,0,0,.79,1.37,2.48,2.48,0,0,0,1.76.73,2.4,2.4,0,0,0,2-1A2.49,2.49,0,0,0,36.59,42.41Z"/><path class="cls-6" d="M160.51,14.21c-3.11-1.74-5.87,3-2.79,4.77,1.18.69-.53,4.56-1,5.55a25.19,25.19,0,0,1-3.85,6.57c-2.64,3-6.1,4.67-9.63,6.42a33.31,33.31,0,0,1-5,2.08c-1.77.55-3.91.61-5.5,1.56a2.39,2.39,0,0,0-.84,3.19c2.63,5.23,10.82,1.38,14.41-.37,4.94-2.42,9.5-5.38,12.66-10S167.17,18,160.51,14.21Z"/><path class="cls-6" d="M128.63,38.76a3,3,0,0,0-4.21,0,3,3,0,0,0,0,4.21,3.11,3.11,0,0,0,2.11.87,3,3,0,0,0,3-3A3,3,0,0,0,128.63,38.76Z"/></g></g></g></svg>