<svg xmlns="http://www.w3.org/2000/svg" viewBox="0 0 181.94 72.31"><defs><style>.cls-1{isolation:isolate;}.cls-2{fill:#5ebdc1;}.cls-3,.cls-4{fill:#deeff9;}.cls-4{opacity:0.45;}.cls-4,.cls-5{mix-blend-mode:multiply;}.cls-5{fill:#89534d;opacity:0.3;}.cls-6{fill:#fff;opacity:0.15;}</style></defs><g class="cls-1"><g id="Layer_2" data-name="Layer 2"><g id="OBJECTS"><path class="cls-2" d="M179.35,10.67a16.16,16.16,0,0,1-.1,5.55c-.44,1.73-2,2.69-2.88,4.17-1.86,3.1-2,7.33-2,10.85-.12,7.86.43,16.6-3.68,23.68-3.57,6.14-11.46,9.74-18,11.77-13.48,4.2-31.57,4-42.53-6.17-6.25-5.79-8.12-13.92-7.46-22.12.31-3.88-.29-8-2.92-11a13.7,13.7,0,0,0-8.78-4,13.67,13.67,0,0,0-8.78,4c-2.64,3-3.23,7.11-2.92,11,.65,8.2-1.22,16.33-7.46,22.12-11,10.16-29.05,10.37-42.54,6.17-6.53-2-14.41-5.63-18-11.77C7.18,47.84,7.73,39.1,7.61,31.24c-.05-3.52-.18-7.75-2.05-10.85C4.68,18.91,3.12,18,2.68,16.22a16.41,16.41,0,0,1-.09-5.55c.21-2,.52-3.6,2.64-4.11,1.94-.48,4-.66,6-1C16.06,4.8,20.9,4.19,25.78,3.8a161.65,161.65,0,0,1,33.06.55C64.58,5.07,70.23,6.26,76,7.1a98.31,98.31,0,0,0,15.53.75A108.1,108.1,0,0,0,106,7.1c5.72-.84,11.37-2,17.11-2.75a161.64,161.64,0,0,1,33.06-.55c4.88.39,9.72,1,14.55,1.78,2,.32,4.06.5,6,1C178.82,7.07,179.13,8.71,179.35,10.67ZM170,40.74a111.93,111.93,0,0,0,.42-15.32c-.15-4.11-.37-8.61-2.95-12-2.29-3-6-4.21-9.61-4.75A81.58,81.58,0,0,0,147,7.85c-3.77-.67-7.6-.3-11.59-.16-5.71.21-11.23.26-16.83,1.55-4,.94-8,2.15-10.77,5.45a17.72,17.72,0,0,0-3.64,9.4c-.78,6.57.53,13.35,2,19.72,1.59,6.71,5.27,12.63,11.17,16.34,5.75,3.61,12.78,4.77,19.48,4.68A54.84,54.84,0,0,0,158,60.74a19,19,0,0,0,8.79-7C169.13,49.92,169.56,45.05,170,40.74ZM75.69,43.81c1.51-6.37,2.82-13.15,2-19.72a17.65,17.65,0,0,0-3.65-9.4c-2.73-3.3-6.73-4.51-10.76-5.45C57.72,8,52.2,7.9,46.5,7.69c-4-.14-7.82-.51-11.59.16a81.61,81.61,0,0,0-10.84.8c-3.61.54-7.31,1.71-9.6,4.75-2.58,3.41-2.8,7.91-3,12a108.83,108.83,0,0,0,.42,15.32c.44,4.31.87,9.18,3.2,13a19.07,19.07,0,0,0,8.78,7A54.89,54.89,0,0,0,45,64.83c6.7.09,13.72-1.07,19.48-4.68S74.1,50.52,75.69,43.81Z"/><path d="M179.69,4.49c2.5,2,2.35,6.6,2.15,9.5a8.09,8.09,0,0,1-1.14,4.17c-1.23,1.82-2.86,2.91-3.44,5.17-1.17,4.52-.12,9.51.15,14.08a43.09,43.09,0,0,1-1,12.14c-1.86,8-6.9,13.19-14.08,16.77-13.62,6.77-30.89,8.24-45,2.13-8.23-3.57-14.61-10.1-17-18.85-1.32-4.74-.72-9.16-.78-14a10.52,10.52,0,0,0-1.86-6.28c-3-3.91-8.08-4.16-11.81-1.42-2.42,1.78-3.26,4.82-3.3,7.7-.06,4.81.55,9.23-.77,14-2.44,8.75-8.83,15.28-17,18.85-14.11,6.11-31.39,4.64-45-2.13-7.19-3.58-12.22-8.8-14.08-16.77a42.73,42.73,0,0,1-1-12.14c.27-4.57,1.32-9.56.15-14.08C4.1,21.07,2.47,20,1.24,18.16A8.09,8.09,0,0,1,.1,14c-.2-2.9-.35-7.47,2.14-9.5,1.43-1.16,3.23-1.3,5-1.59,2.31-.39,4.6-.86,6.93-1.18Q21.7.66,29.34.25A149.44,149.44,0,0,1,60.55,1.68c5.39.84,10.65,2.23,16,3.24A68.25,68.25,0,0,0,91.71,6.16c2.4-.09,4.89-.75,7.28-.69a28.85,28.85,0,0,0,6.4-.55c5.35-1,10.61-2.4,16-3.24A149.38,149.38,0,0,1,152.59.25c5.09.27,10.17.76,15.21,1.47,2.32.32,4.62.79,6.93,1.18C176.47,3.19,178.27,3.33,179.69,4.49Zm-.44,11.73a16.16,16.16,0,0,0,.1-5.55c-.22-2-.53-3.6-2.64-4.11-1.94-.48-4-.66-6-1C165.88,4.8,161,4.19,156.16,3.8a161.64,161.64,0,0,0-33.06.55c-5.74.72-11.39,1.91-17.11,2.75a108.1,108.1,0,0,1-14.51.75A98.31,98.31,0,0,1,76,7.1c-5.72-.84-11.37-2-17.11-2.75A161.65,161.65,0,0,0,25.78,3.8c-4.88.39-9.72,1-14.55,1.78-2,.32-4.06.5-6,1-2.12.51-2.43,2.15-2.64,4.11a16.41,16.41,0,0,0,.09,5.55c.44,1.73,2,2.69,2.88,4.17,1.87,3.1,2,7.33,2.05,10.85.12,7.86-.43,16.6,3.68,23.68,3.57,6.14,11.45,9.74,18,11.77,13.49,4.2,31.58,4,42.54-6.17,6.24-5.79,8.11-13.92,7.46-22.12-.31-3.88.28-8,2.92-11a13.67,13.67,0,0,1,8.78-4,13.7,13.7,0,0,1,8.78,4c2.63,3,3.23,7.11,2.92,11-.66,8.2,1.21,16.33,7.46,22.12,11,10.16,29.05,10.37,42.53,6.17,6.53-2,14.42-5.63,18-11.77,4.11-7.08,3.56-15.82,3.68-23.68,0-3.52.18-7.75,2-10.85C177.26,18.91,178.81,18,179.25,16.22Z"/><path d="M170.42,25.42A111.93,111.93,0,0,1,170,40.74c-.44,4.31-.87,9.18-3.2,13a19,19,0,0,1-8.79,7,54.84,54.84,0,0,1-21.11,4.09c-6.7.09-13.73-1.07-19.48-4.68-5.9-3.71-9.58-9.63-11.17-16.34-1.52-6.37-2.83-13.15-2-19.72a17.72,17.72,0,0,1,3.64-9.4c2.74-3.3,6.74-4.51,10.77-5.45,5.6-1.29,11.12-1.34,16.83-1.55,4-.14,7.82-.51,11.59.16a81.58,81.58,0,0,1,10.83.8c3.61.54,7.32,1.71,9.61,4.75C170.05,16.81,170.27,21.31,170.42,25.42Zm-2.12,8.11c.1-4.15.25-8.59-.56-12.68-1-4.94-3.67-7.67-8.52-8.78a77.88,77.88,0,0,0-13.63-1.39c-5.31-.23-10.6,0-15.91,0l-3,0c-.83.08-1.66.18-2.48.31-6.86,1.09-14.16,2.64-16.38,10-1.71,5.73-.83,12.06.27,17.82,1.15,6.06,2.74,12,7.36,16.38,9,8.54,23.5,7.65,34.66,5.07A31.54,31.54,0,0,0,160,56.52,14.89,14.89,0,0,0,166.62,47,60.4,60.4,0,0,0,168.3,33.53Z"/><path class="cls-3" d="M167.74,20.85c.81,4.09.66,8.53.56,12.68A60.4,60.4,0,0,1,166.62,47,14.89,14.89,0,0,1,160,56.52a31.54,31.54,0,0,1-9.88,3.77c-11.16,2.58-25.68,3.47-34.66-5.07-4.62-4.39-6.21-10.32-7.36-16.38-1.1-5.76-2-12.09-.27-17.82,2.22-7.41,9.52-9,16.38-10,.82-.13,1.65-.23,2.48-.31l3,0c5.31,0,10.6-.24,15.91,0a77.88,77.88,0,0,1,13.63,1.39C164.07,13.18,166.77,15.91,167.74,20.85Z"/><path d="M77.74,24.09c.77,6.57-.54,13.35-2,19.72-1.59,6.71-5.27,12.63-11.17,16.34S51.74,64.92,45,64.83a54.89,54.89,0,0,1-21.12-4.09,19.07,19.07,0,0,1-8.78-7c-2.33-3.78-2.76-8.65-3.2-13a108.83,108.83,0,0,1-.42-15.32c.15-4.11.37-8.61,3-12,2.29-3,6-4.21,9.6-4.75a81.61,81.61,0,0,1,10.84-.8c3.77-.67,7.6-.3,11.59-.16,5.7.21,11.22.26,16.83,1.55,4,.94,8,2.15,10.76,5.45A17.65,17.65,0,0,1,77.74,24.09Zm-3.9,14.75c1.1-5.76,2-12.09.27-17.82-2.22-7.41-9.51-9-16.37-10-.83-.13-1.65-.23-2.48-.31l-3,0c-5.31,0-10.6-.24-15.91,0a77.78,77.78,0,0,0-13.63,1.39c-4.86,1.11-7.56,3.84-8.53,8.78-.81,4.09-.65,8.53-.55,12.68A59.82,59.82,0,0,0,15.32,47a14.91,14.91,0,0,0,6.62,9.54,31.5,31.5,0,0,0,9.89,3.77C43,62.87,57.51,63.76,66.49,55.22,71.11,50.83,72.69,44.9,73.84,38.84Z"/><path class="cls-3" d="M74.11,21c1.71,5.73.83,12.06-.27,17.82-1.15,6.06-2.73,12-7.35,16.38-9,8.54-23.51,7.65-34.66,5.07a31.5,31.5,0,0,1-9.89-3.77A14.91,14.91,0,0,1,15.32,47a59.82,59.82,0,0,1-1.68-13.45c-.1-4.15-.26-8.59.55-12.68,1-4.94,3.67-7.67,8.53-8.78a77.78,77.78,0,0,1,13.63-1.39c5.31-.23,10.6,0,15.91,0l3,0c.83.08,1.65.18,2.48.31C64.6,12.06,71.89,13.61,74.11,21Z"/><path class="cls-4" d="M71.44,19.28A3.67,3.67,0,0,0,73.51,18,2.48,2.48,0,0,0,73,15.12a6.84,6.84,0,0,0-2.7-1.5,85.76,85.76,0,0,0-46-3.48C21.24,10.76,18,11.65,16,14S13.34,19.35,13,22.34a73.55,73.55,0,0,0,.23,17.73c.18,1.35.4,2.69.65,4,.35,1.83.08,2.62,1.83,1.95,2.49-.94,5-3,7.28-4.39A281,281,0,0,1,53.31,26.36Q62.25,22.51,71.44,19.28Z"/><path class="cls-4" d="M148.87,26.88l14.72-7.15a10.32,10.32,0,0,0,2.89-1.82,3.52,3.52,0,0,0,1.12-3.09c-.41-2-2.79-2.75-4.78-3.11A165.13,165.13,0,0,0,124.5,9.3c-3.33.18-6.75.48-9.76,1.92-5.59,2.67-8.8,8.89-9.52,15-.55,4.66-1.11,17.75,6,18.1,3.62.17,7.88-3,11-4.55l12.54-6.09Z"/><path class="cls-5" d="M77.34,50.1a57,57,0,0,0-5.84,5.26,52.2,52.2,0,0,1-7.2,5.54c-1.25.81-2.51,1.62-3.78,2.39a46.65,46.65,0,0,1-6.16,1.89c-1.65.38-3.32.92-5,1.27-2.88-.42-6,.14-8.84.08a35.69,35.69,0,0,1-10.74-2.16c-5.49-1.89-11.9-4.64-15.2-9.69C11.14,49.44,9.25,42,9.2,35.75c0-4.89,1.77-9.93.15-14.73-.87-2.59-3.68-4-3.88-6.73A18.39,18.39,0,0,1,6.51,7c.4-1.1-.94-1.86-1.83-1.41C2.56,6.62,2.21,9.45,2,11.56c-.33,2.58-.34,5.16,1.2,7.38A34.33,34.33,0,0,1,5.6,22a10.35,10.35,0,0,1,1,4.13,57.87,57.87,0,0,1-.28,8.53,39.09,39.09,0,0,0,4,20c2.94,6,8.57,9.29,14.46,11.86a41.72,41.72,0,0,0,12.25,3A33.43,33.43,0,0,0,44,69.41c1.15-.12,2.34-.2,3.52-.32a18.78,18.78,0,0,0,2.32.23c4.71,1.49,10.59-.47,15-2.24,4.12-1.67,7.82-4.54,9.67-8.66a14.52,14.52,0,0,0,4.45-7.13C79.07,50.46,78.14,49.55,77.34,50.1Z"/><path class="cls-5" d="M77.09,14.62c-1.16-2.62-2.72-5-5.38-6.25A31.48,31.48,0,0,0,61.65,5.93C53.83,5.1,45.87,5.6,38,5.77c-7,.16-13.77,0-20.48,2.31a.92.92,0,0,0-.22,1.65c2,1.31,4.88.1,7-.11a96.34,96.34,0,0,1,10.05-.35c7.08,0,14.17-.25,21.25,0,5.4.22,14.16.17,17.17,5.54a18,18,0,0,1,2.56,8.89c-.09,2.71-.59,5.35-.16,8.07a1.34,1.34,0,0,0,2.23.59c1.78-2.07,1.78-6.05,1.87-8.66A21.12,21.12,0,0,0,77.09,14.62Z"/><path class="cls-5" d="M165.69,57.75a19.42,19.42,0,0,0-4.46,2.5,44.9,44.9,0,0,1-4.47,2.43,47.84,47.84,0,0,1-10.55,3.49c-8.12,1.69-16.26.69-24.15-1.64-7.49-2.22-12.94-6.7-15.69-14.09a52.16,52.16,0,0,1-2.58-10.68.72.72,0,0,0,.18-.65,39,39,0,0,1-.7-7.54,11.75,11.75,0,0,0-.89-6c-1.67-3.18-5.53-4.2-8.86-4.24C87.83,21.25,81.62,24,81,30.21c-.1.9,1.27,1,1.52.2,1.45-4.55,7.18-5.29,11.3-4.92a9.37,9.37,0,0,1,3.44.77c1.54.79,1.92,2.31,2.38,3.86s.91,3.09,1.4,4.64c0,1.4-.07,2.8,0,4.15a56.68,56.68,0,0,0,1.47,10.38c1.43,5.64,4.08,10.72,8.75,14.32,5.15,4,12.1,5.7,18.4,6.74a47.65,47.65,0,0,0,20.06-.92,45.86,45.86,0,0,0,9.65-3.82c2.63-1.39,6.44-3.3,7.68-6.16A1.18,1.18,0,0,0,165.69,57.75Z"/><path class="cls-5" d="M171.42,13c-2.42-5.4-7.77-7.51-13.29-8.27a80.24,80.24,0,0,0-21.89-.15c-4.23.56-8.39,1.34-12.58,2.09-3.55.63-7.25.52-10.4,2.49-.65.41-.24,1.54.54,1.29,3.2-1,6.91-.61,10.24-1,3.79-.38,7.54-1,11.32-1.42.33,0,.67-.06,1-.09a1.25,1.25,0,0,0,1.14.65c4.19.08,8.38-.18,12.58.1,1.84.13,3.67.3,5.53.33,2.11,0,4.14,0,6,1.14a.93.93,0,0,0,1.06,0,9.05,9.05,0,0,1,5.07,5.07c2.36,6.13,2,13,2.54,19.47a.8.8,0,0,0,1.59,0C172.55,27.61,174.46,19.72,171.42,13Z"/><path class="cls-6" d="M65.37,24.26A125.65,125.65,0,0,0,41.31,35.84c-3.2,1.92-6.33,3.95-9.55,5.84-2.86,1.68-5.87,3.38-8,6a2.22,2.22,0,0,0,3.14,3.14c2.35-1.94,5.63-3.13,8.36-4.45,3.3-1.58,6.44-3.46,9.67-5.18,7.51-4,15.23-7.72,22.29-12.51C69.36,27.22,68.11,23.34,65.37,24.26Z"/><path class="cls-6" d="M160.06,20.68c-9.66,2.62-18.28,7.7-26.71,13-3.49,2.17-7,4.41-10.4,6.68a27.59,27.59,0,0,0-8.29,7.88c-1.22,1.92,1.58,4.08,3.15,2.43,2.5-2.63,5.87-4,9.08-5.63,3.65-1.8,7.23-3.67,10.81-5.61C145.87,35,154.31,31,162.75,27.06,166.41,25.37,163.8,19.66,160.06,20.68Z"/><path class="cls-6" d="M163.56,30.72c-1.72-2.2-4.74.6-3.66,2.82,2.79,5.7-5.44,12.76-8.68,16.56-2.08,2.43.66,6.87,3.68,4.76C162,49.87,170.11,39.1,163.56,30.72Z"/><path class="cls-6" d="M143.47,50.81l-.08-.07a3,3,0,0,0-4.09,0l-.08.07c-2.15,1.69-.26,5.13,2.13,5.13S145.62,52.49,143.47,50.81Z"/><path class="cls-6" d="M70.37,34c-.22-1.59-2.46-2.7-3.39-.91-1.75,3.41-2.73,7-5.54,9.79s-6.42,4-9.78,5.82c-2.48,1.35-1.29,5.15,1.41,5.19C62.91,54,71.68,43.77,70.37,34Z"/><path class="cls-6" d="M44.07,49.84l0-.2a2.8,2.8,0,0,0-2-2,2.84,2.84,0,0,0-3.5,3.5,2.8,2.8,0,0,0,2,2l.21,0a2.93,2.93,0,0,0,1.44,0,2.72,2.72,0,0,0,1.89-3.34Z"/></g></g></g></svg>