<svg xmlns="http://www.w3.org/2000/svg" viewBox="0 0 165.7 73.59"><defs><style>.cls-1{isolation:isolate;}.cls-2{fill:#df4d68;}.cls-3,.cls-4{fill:#535b66;}.cls-4{opacity:0.45;}.cls-4,.cls-5{mix-blend-mode:multiply;}.cls-5{fill:#89534d;opacity:0.3;}.cls-6{fill:#fff;opacity:0.15;}</style></defs><g class="cls-1"><g id="Layer_2" data-name="Layer 2"><g id="OBJECTS"><path class="cls-2" d="M155.76,14.48c5.77,6.4,8.38,15.5,7.76,24-1.06,14.64-12.47,26.73-26.38,30.43-13.3,3.54-28.27-.6-35.7-12.72a30.49,30.49,0,0,1-3.81-9.69c-.88-4.25-.34-8.63-.93-12.92-.43-3.14-1.59-5.92-4.67-7.2-2.64-1.09-6-1.11-8.84-1.31a21.24,21.24,0,0,0-9.51,1.31c-3.09,1.28-4.24,4.06-4.68,7.2-.59,4.29,0,8.67-.93,12.92a30.47,30.47,0,0,1-3.8,9.69c-7.43,12.12-22.4,16.26-35.71,12.72C14.65,65.23,3.24,53.14,2.18,38.5c-.62-8.52,2-17.62,7.76-24C14.85,9,21.55,5.7,28.64,4.07,36,2.39,43.92,3.57,50.9,6.26A38.12,38.12,0,0,1,61.19,12.1a27.7,27.7,0,0,1,4.08,4.17c.42.95.77,1.93,1.17,2.9.62,1.52,1.43,3.43,3,4.19s2.94,0,4.4-.37a31.4,31.4,0,0,1,9.33-.55c2.85.13,5.92-.16,8.68.55,1.46.38,2.92,1.09,4.4.37s2.38-2.67,3-4.19c.4-1,.76-2,1.17-2.9a27.7,27.7,0,0,1,4.08-4.17A38.27,38.27,0,0,1,114.8,6.26c7-2.69,14.89-3.87,22.27-2.19C144.15,5.7,150.85,9,155.76,14.48Zm-6.89,42.33c9.38-9,14.06-24.63,6.79-36.31a26.68,26.68,0,0,0-10-9.43c-5.87-4.83-14.15-5.81-21.57-4.88-8,1-15.57,5.16-20,12.09-7.81,12.28-3.66,29.67,5.68,40C120.1,69.68,138.54,66.78,148.87,56.81ZM55.93,58.28c9.35-10.33,13.49-27.72,5.68-40-4.4-6.93-11.92-11.08-20-12.09-7.43-.93-15.71,0-21.58,4.88A26.75,26.75,0,0,0,10,20.5c-7.26,11.68-2.58,27.27,6.8,36.31C27.16,66.78,45.61,69.68,55.93,58.28Z"/><path d="M164.5,26.84A36.76,36.76,0,0,1,149,67.07c-12.17,8-29.08,9.11-41.37.73A32.31,32.31,0,0,1,94.49,48.74c-1.31-5.36-.37-10.86-1.38-16.22-.93-4.9-6.94-5.37-11-5.4-3.7,0-8.73,1.13-9.53,5.4-1,5.36-.08,10.86-1.39,16.22A32.26,32.26,0,0,1,58.07,67.8c-12.29,8.38-29.2,7.27-41.37-.73A36.77,36.77,0,0,1,1.21,26.84c2-7.61,6.27-15.19,12.64-19.95A36.32,36.32,0,0,1,35,0,40.19,40.19,0,0,1,55.82,5.82C61.05,9,67.11,14,69.18,20a2.8,2.8,0,0,0,1.31.88c.77.2,1.89-.45,2.61-.63a14.19,14.19,0,0,1,3-.43c2.45-.1,4.9,0,7.35.05,2,.06,4.05-.13,6.07-.05a14.2,14.2,0,0,1,3,.43c.72.18,1.83.83,2.6.63A2.77,2.77,0,0,0,96.53,20c2.07-6,8.12-11,13.35-14.18A40.24,40.24,0,0,1,130.75,0a36.35,36.35,0,0,1,21.11,6.89C158.23,11.65,162.53,19.23,164.5,26.84Zm-1,11.66c.62-8.52-2-17.62-7.76-24C150.85,9,144.15,5.7,137.07,4.07c-7.38-1.68-15.28-.5-22.27,2.19a38.27,38.27,0,0,0-10.29,5.84,27.7,27.7,0,0,0-4.08,4.17c-.41.95-.77,1.93-1.17,2.9-.62,1.52-1.42,3.43-3,4.19s-2.94,0-4.4-.37c-2.76-.71-5.83-.42-8.68-.55a31.4,31.4,0,0,0-9.33.55c-1.46.38-2.92,1.09-4.4.37s-2.39-2.67-3-4.19c-.4-1-.75-2-1.17-2.9a27.7,27.7,0,0,0-4.08-4.17A38.12,38.12,0,0,0,50.9,6.26C43.92,3.57,36,2.39,28.64,4.07,21.55,5.7,14.85,9,9.94,14.48c-5.77,6.4-8.38,15.5-7.76,24C3.24,53.14,14.65,65.23,28.56,68.93c13.31,3.54,28.28-.6,35.71-12.72a30.47,30.47,0,0,0,3.8-9.69c.89-4.25.34-8.63.93-12.92.44-3.14,1.59-5.92,4.68-7.2a21.24,21.24,0,0,1,9.51-1.31c2.83.2,6.2.22,8.84,1.31,3.08,1.28,4.24,4.06,4.67,7.2.59,4.29,0,8.67.93,12.92a30.49,30.49,0,0,0,3.81,9.69c7.43,12.12,22.4,16.26,35.7,12.72C151.05,65.23,162.46,53.14,163.52,38.5Z"/><path d="M155.66,20.5c7.27,11.68,2.59,27.27-6.79,36.31-10.33,10-28.77,12.87-39.1,1.47-9.34-10.33-13.49-27.72-5.68-40,4.4-6.93,11.92-11.08,20-12.09,7.42-.93,15.7,0,21.57,4.88A26.68,26.68,0,0,1,155.66,20.5ZM144.07,58.15c10-6.9,15.18-21,11.05-32.66A25.44,25.44,0,0,0,145.25,13a56,56,0,0,0-6.33-3.07,30.42,30.42,0,0,0-10.7-1.23c-6.79.25-13.84,2.64-18.76,7.47-9.83,9.65-7.63,25.24-.86,36,3.75,5.94,9.28,10.46,16.5,11A30.36,30.36,0,0,0,144.07,58.15Z"/><path class="cls-3" d="M155.12,25.49c4.13,11.61-1,25.76-11.05,32.66a30.36,30.36,0,0,1-19,5c-7.22-.51-12.75-5-16.5-11-6.77-10.74-9-26.33.86-36,4.92-4.83,12-7.22,18.76-7.47a30.42,30.42,0,0,1,10.7,1.23A56,56,0,0,1,145.25,13,25.44,25.44,0,0,1,155.12,25.49Z"/><path d="M61.61,18.28c7.81,12.28,3.67,29.67-5.68,40-10.32,11.4-28.77,8.5-39.09-1.47C7.46,47.77,2.78,32.18,10,20.5a26.75,26.75,0,0,1,10-9.43c5.87-4.83,14.15-5.81,21.58-4.88C49.69,7.2,57.21,11.35,61.61,18.28Zm-4.5,33.88c6.76-10.74,9-26.33-.87-36-4.92-4.83-12-7.22-18.76-7.47A30.37,30.37,0,0,0,26.79,9.94,55.16,55.16,0,0,0,20.46,13a25.44,25.44,0,0,0-9.87,12.48c-4.14,11.61,1,25.76,11,32.66a30.41,30.41,0,0,0,19,5C47.83,62.62,53.36,58.1,57.11,52.16Z"/><path class="cls-3" d="M56.24,16.18c9.83,9.65,7.63,25.24.87,36-3.75,5.94-9.28,10.46-16.5,11a30.41,30.41,0,0,1-19-5c-10-6.9-15.18-21-11-32.66A25.44,25.44,0,0,1,20.46,13a55.16,55.16,0,0,1,6.33-3.07A30.37,30.37,0,0,1,37.48,8.71C44.27,9,51.32,11.35,56.24,16.18Z"/><path class="cls-4" d="M55.66,14.32c-.76-2.5-3.52-3.74-6-4.48C41,7.29,31.5,7,23.23,10.48s-15,11.2-15.95,20.13c-.6,5.64,1.1,11.29,3.88,16.17.38.66,1.19,2.59,2.23,2.38.79-.17,1.55-2.33,1.94-3a70.22,70.22,0,0,1,3.91-5.91A72.13,72.13,0,0,1,40.83,20.83C42,20.15,55.45,13.63,55.66,14.32Z"/><path class="cls-4" d="M146.3,18.54c1.3-.72,2.74-1.57,3.09-3a3.5,3.5,0,0,0-1.13-3.22,9.35,9.35,0,0,0-3.08-1.77c-7-2.83-14.8-4.26-22.28-3s-14.62,5.56-18.39,12.15a26.27,26.27,0,0,0-2.77,16.87c.65,4.24,2.06,9.53,4.67,13,3.1,4.11,6.29-2.76,8.24-5.08a113,113,0,0,1,19.2-18A111,111,0,0,1,146.3,18.54Z"/><path class="cls-5" d="M70.5,33.09c-.14-1.1-1.73-1.51-2.06-.28-1,3.75-1.45,7.61-2.5,11.36A42.78,42.78,0,0,1,61.25,55.3C57.16,61.85,50.36,65.76,42.83,67A37.5,37.5,0,0,1,21,63.85c-3.58-1.69-7.28-3.68-9.7-6.89A38,38,0,0,1,5.46,44.4C4,39.33,4.32,34,5.21,28.84c.79-4.61,2-9.31,4.73-13.2.55-.78-.69-1.73-1.33-1C5.6,17.92,4,22.12,3,26.42A45.08,45.08,0,0,0,1.69,40.86C2.57,50.35,7.18,60.11,15.62,65c14,8,34.52,9.49,46.08-3.71a34.27,34.27,0,0,0,7-13C70.05,43.45,71.12,38.06,70.5,33.09Z"/><path class="cls-5" d="M161.55,37.83c-1.53,3.28-2.12,6.85-3.68,10.11a42,42,0,0,1-5.32,8.62,28.58,28.58,0,0,1-15.79,9.93c-12.81,3.26-26.49-1-33.66-12.5-2.14-3.44-2.93-7.37-3.72-11.28-.87-4.32-2-8.59-2.72-12.94-.16-1-1.74-.74-1.77.24-.14,4.44.88,8.73,1.42,13.11.48,3.87.92,7.61,2.68,11.15A32.58,32.58,0,0,0,114.74,69c12.3,5.31,29.35,2.77,38.63-7.21a41.35,41.35,0,0,0,7.09-10.08,40.11,40.11,0,0,0,3.48-13.21C164.09,37.23,162.07,36.72,161.55,37.83Z"/><path class="cls-5" d="M158.28,22.51c-.8-1.49-1.17-3.15-2-4.61a18.83,18.83,0,0,0-2.58-3.32,33.34,33.34,0,0,0-7.91-5.72,33.33,33.33,0,0,0-17-4.58A36.73,36.73,0,0,0,112,8.67c-4.83,2.63-10,6.7-11.53,12.21-.18.65.74,1.29,1.21.7,3.38-4.21,6.91-7.9,11.79-10.39a34.51,34.51,0,0,1,15.25-3.64,31.61,31.61,0,0,1,15.38,4.11,36.49,36.49,0,0,1,12.75,11.67A.82.82,0,0,0,158.28,22.51Z"/><path class="cls-5" d="M66.19,27c-2.66-6-4.53-11.75-9.93-16A34.56,34.56,0,0,0,39.67,4.3a30.18,30.18,0,0,0-17,2.34c-4.44,2-10.67,5.52-12,10.63a1,1,0,0,0,1.63.95c1.92-1.71,3.52-3.7,5.62-5.22a37,37,0,0,1,6-3.48,27.13,27.13,0,0,1,16.17-2A33.41,33.41,0,0,1,54.94,13.7c4.66,3.6,7.36,8.93,10.06,14C65.43,28.53,66.54,27.83,66.19,27Z"/><path class="cls-6" d="M51.08,22.37c-1.77.3-1.84,2.44-1.23,3.76a7.91,7.91,0,0,1,.58,3.67,25.33,25.33,0,0,1-.65,5.82c-1.47,5.82-5,10.43-8.9,14.81C39,52.53,40.8,57,43.94,55.68c8-3.3,12.32-12.09,13.3-20.39C57.73,31.1,57.32,21.32,51.08,22.37Z"/><path class="cls-6" d="M149,24.49c-1.15-2.91-5.63-1.85-4.81,1.33,2.43,9.43-3.81,17.35-10.84,22.78-3.41,2.63-.62,7.6,3.39,5.8a24.58,24.58,0,0,0,12.41-12.53C151.71,36.16,151.29,30.21,149,24.49Z"/><path class="cls-6" d="M126,51.67l-.38-.89a2.8,2.8,0,0,0-.95-1,1.9,1.9,0,0,0-.82-.48,2.92,2.92,0,0,0-1.43-.32l-1,.14-.88.37a2.74,2.74,0,0,0-1,1,1.84,1.84,0,0,0-.48.82,2.77,2.77,0,0,0-.32,1.42c0,.33.09.66.13,1l.38.89a3.77,3.77,0,0,0,1.33,1.33l.11.08a3.47,3.47,0,0,0,3.52,0l.11-.08a2.67,2.67,0,0,0,1-1,1.84,1.84,0,0,0,.48-.82,2.79,2.79,0,0,0,.32-1.43Z"/><path class="cls-6" d="M32.24,51.83A3.21,3.21,0,0,0,30,49.53a3.18,3.18,0,0,0-2.41.32A3.51,3.51,0,0,0,26.41,51a3.5,3.5,0,0,0-.31,2.36l.31.73a2.31,2.31,0,0,0,.73.82,3.13,3.13,0,0,0,1.27.71,2.28,2.28,0,0,0,1.24.05,2.78,2.78,0,0,0,2-1.17,2.31,2.31,0,0,0,.56-1.06A3.08,3.08,0,0,0,32.24,51.83Z"/></g></g></g></svg>